<?xml version="1.0" encoding="utf-8"?>
<!-- Generator: Adobe Illustrator 23.0.1, SVG Export Plug-In . SVG Version: 6.00 Build 0)  -->
<svg version="1.1" id="Layer_1" xmlns="http://www.w3.org/2000/svg" xmlns:xlink="http://www.w3.org/1999/xlink" x="0px" y="0px"
	 viewBox="0 0 24 15.7" style="enable-background:new 0 0 24 15.7;" xml:space="preserve">
<style type="text/css">
	.st0{fill:#FFFFFF;}
</style>
<path class="st0" d="M22,2.4h-7v-2h7V2.4z M23.7,12.4c-0.4,1.3-2,3-5.1,3S13,13.7,13,9.7c0-3.9,2.3-5.9,5.5-5.9c3.1,0,5,1.8,5.4,4.4
	C24,8.7,24,9.4,24,10.4h-8c0.1,3.2,3.5,3.3,4.6,2H23.7z M16,8.4h5c-0.1-1.5-1.1-2.2-2.5-2.2S16.3,6.9,16,8.4z M6.5,15.4H0v-15h7
	c5.5,0.1,5.6,5.4,2.7,6.9C13.1,8.6,13.2,15.4,6.5,15.4z M3,6.4h3.6c2.5,0,2.9-3-0.3-3H3V6.4z M6.4,9.4H3v3h3.3
	C9.4,12.4,9.2,9.4,6.4,9.4z"/>
</svg>
