<?xml version="1.0" encoding="utf-8"?>
<!-- Generator: Adobe Illustrator 23.0.1, SVG Export Plug-In . SVG Version: 6.00 Build 0)  -->
<svg version="1.1" id="Layer_1" xmlns="http://www.w3.org/2000/svg" xmlns:xlink="http://www.w3.org/1999/xlink" x="0px" y="0px"
	 viewBox="0 0 492.7 225.1" style="enable-background:new 0 0 492.7 225.1;" xml:space="preserve">
<style type="text/css">
	.st0{opacity:0.8;}
	.st1{fill:#DDDDDD;}
</style>
<g class="st0">
	<path class="st1" d="M328.7,143c-2.4,0.6-4.8,1.3-8.1,2.1c0.9-1.4,1.3-2.2,1.9-2.7c1.8-1.6,3.7-3.2,5.7-4.5
		c4.6-2.8,8.1-6.2,9.9-11.5c0.9-2.5,2.6-4.8,4.2-7.7c-23.3-1.3-46.2,1.8-70.2,0.6c1.2,2,2,3.4,2.9,4.7c1.6,2.5,3.2,5,5,7.4
		c2.5,3.3,5,6.6,7.9,9.5c8.6,8.6,11.4,19.1,10.5,30.9c-0.5,6.4-0.6,12.9-0.8,19.4c-0.1,3.2-1.1,6.1-3.3,8.5
		c-6.6,7.2-13.1,14.5-19.7,21.8c-0.4,0.4-1.1,0.6-2.3,1.3c-1.8-5.3-3.4-10.3-5.3-15.2c-1.5-4-1.1-7.9,0.1-11.9
		c0.9-2.8,2.1-5.6,3-8.5c1.2-3.7,1.8-7.4,0.6-11.2c-1.3-4.1-0.7-7.9,1.1-11.7c1.9-3.9,3.6-7.9,4.9-12.4c-0.8,0.3-1.5,0.5-2.3,0.8
		c-5.8,1.8-11.5,4.1-17.5,5.3c-2.9,0.6-6.1-0.4-9.1-1c-4.5-1-8.9-2.3-13.1-3.4c1.6-3.4,2.6-7.3,4.9-10c3.6-4.2,8-7.8,12.3-11.4
		c2.5-2.1,5.6-3.6,8.4-5.3c1.7-1,3.4-2,5-3c1.8-1.1,1.9-2.2,0-3.3c-1.2-0.6-2.6-0.9-3.9-1c-9.4-0.6-18.8-1.2-28.3-1.6
		c-1,0-2.4,0.4-2.9,1.1c-3.3,5.1-6,10.6-9.6,15.5c-4.9,6.8-10.3,13.3-15.5,19.8c-1.8,2.2-2.3,1.9-4.1-0.2c-3.6-4.1-5.3-9.1-7.6-13.8
		c-0.5-1.1-0.7-2.4-1.1-3.6c-0.9-2.6-0.1-4.2,2.5-5.4c2.3-1,4.3-2.9,7.1-5c-2.7-2-4.9-3.7-7.1-5.4c-3.5-2.7-7.2-4.3-11.8-3.6
		c-2.8,0.4-3.2,0.8-1.7,3.4c2.9,4.9,5.2,10.1,4.8,16c-0.3,4.1-1.3,8.2-1.7,12.3c-0.2,2.6,0.1,5.2,0.3,7.8c0.2,1.9,0.7,3.7,1.1,6.4
		c-2.3-0.7-3.8-1-5.2-1.6c-4.7-2-9.3-3.9-13.9-6.1c-3.8-1.8-4-6-5.7-9.1c-1.8-3.3-3.6-6.5-5.8-10.4c-1.1,1.5-1.7,2.3-2.3,3.1
		c-3.2,4-6.4,8.1-9.7,12.1c-0.7,0.8-2,1.1-3,1.6c-0.1-0.8-0.1-2.3-0.3-2.4c-2.4-0.2-5-0.8-7-0.1c-2,0.8-3.2,3.1-2.6,6.2
		c1.6-0.2,3.1,0,4.4-0.5c2-0.9,3.7-2.2,5.6-3.4c-1.1,1.3-2.1,2.7-3.3,3.9c-2.7,2.6-5.6,5-8.4,7.6c-1.8-3.6-0.9-10.5,1.7-13.1
		c3.1-3.2,6.3-6.4,9.3-9.7c1-1.2,1.7-2.8,2.1-4.3c0.7-2.4,1-4.9,1.5-7.4c0.3-1.8-0.3-2.9-2.3-2.9c-11.1-0.1-21.2-3.8-31.2-8.2
		c-4.3-1.9-8.4-1.8-12.7-1c-0.7-2.6-3.1-4.5-1.8-7.4c0.1-0.1-1.5-1.5-2.2-1.4c-9.8,0.9-19.7,2-29.5,3c-0.5,0.1-1,0.4-1.9,0.9
		c2.4,2.4,4.5,4.6,6.8,6.5c0.8,0.6,2.4,0.6,3.6,0.4c4.8-0.6,9.5-1.4,14.3-2c2.7-0.3,5.4-0.4,8.1-0.6c0,0.3,0.1,0.6,0.1,0.8
		c-3,0.4-6.1,0.9-9.1,1.3c-2.5,0.4-5,0.7-7.5,1.1c-2.1,0.3-4.7,0.3-2.8,4c-4.3-0.7-8-1.5-11.7-1.8c-6.9-0.6-13.8-0.8-20.7-1.2
		c-6-0.3-12-0.5-17.9-0.7c-2.7-0.1-4.5-1.2-5.6-3.8c-0.9-2.2-2-4.3-3.3-7.1c3.4-0.2,6.3-0.6,9.2-0.5c8,0.1,16.1,0,24.1,0.7
		c12.3,1.2,24.3-0.4,36.4-1.7c3-0.3,6-0.7,8.9-0.9c1.9-0.1,3.1-0.9,4.1-2.6c2.7-4.4,5.1-9.1,8.5-12.9c3.1-3.4,7.1-6.2,11-8.7
		c3.7-2.3,7.8-3.9,11.7-5.8c0.4,1.5,0.5,3.2,1.3,4.3c3.7,4.7,7.5,9.3,11.4,13.8c0.6,0.7,1.8,1.5,2.5,1.4c4-0.5,8-1.3,12.3-2
		c-0.6-1-0.9-1.5-1.2-1.9c-4.4-4.7-9.1-9.1-13.2-14c-3.3-3.9-6.6-4.9-11-2.3c-0.7,0.4-1.5,0.5-2.3,0.8c3.6-1.7,7.2-3.6,10.9-4.9
		c3.7-1.3,5.3-4.4,2.7-7.3c-4.3-4.9-3.8-10.6-3.7-16.3c0-1.4,0-2.7,0-4.1c0-1.1-0.1-2.1,0.5-3.3c5.1,5.4,10.3,10.7,15.2,16.3
		c2.2,2.6,3.5,5.9,5.2,8.9c2.7,4.8,5.6,9.6,7.9,14.6c1,2.1,1,4.9,0.6,7.3c-0.6,3.8-2.1,7.5-2.9,11.4c-0.3,1.6,0,3.4,0.4,4.9
		c1.3,5,5.7,4.5,9.3,4.6c8,0.1,16.1-0.3,24.2-0.5c4.6-0.1,9.2-0.4,13.8-0.1c2.5,0.1,4.3-0.6,5.7-2.4c0.5-0.6,0.7-1.4,1-2
		c-0.8-0.3-1.6-0.7-2.4-0.7c-5.7-0.1-11.5,0.2-17.2-0.1c-2.3-0.1-4.9-0.8-6.8-2.2c-6.2-4.5-12.2-9.3-18.3-14
		c0.1-0.4,0.2-0.8,0.2-1.1c1.8-0.5,3.6-0.8,5.3-1.4c1.7-0.6,3.4-1.4,4.9-2.3c3.6-2.2,6.9-5,10.7-6.7c2.9-1.3,6.4-1.5,9.6-1.8
		c2.5-0.2,5,0.3,7.6,0.3c2.5,0.1,3.1-1,2-3.3c-1.7-3.6-3.8-7.1-5-10.9c-1.2-3.7-1.9-7.6-1.9-11.5c-0.1-5.1,0.7-10.3,1-15.5
		c0.1-1.6,0.4-3.4-0.2-4.8c-3.3-7.9-2.2-15.8-0.4-23.7c0.1-0.4,0.2-0.9,0.3-1.3c0.1-0.2,0.3-0.3,0.7-0.7c1.7,1.5,3.1,3.3,5,4.5
		c5.1,3.1,10.2,6.3,15.6,8.8c6,2.8,11.3,6.1,14.7,12c4,7,8.2,13.9,11.9,21c3.4,6.4,0.9,12.5-1.6,18.6c-1.2,3-2.5,5.9-3.4,9
		c-1.8,5.9-5.7,9.9-10.8,12.9c-4.9,2.9-9.8,5.8-12.5,11.3c-1,2.1-2.3,4.1-3.5,6.2c7.7,3.1,15.5,3.1,23.3,3.4
		c8.2,0.3,16.3,0.5,24.5,0.7c1.1,0,2.3-0.2,3.2-0.7c2.2-1.4,4.3-3.1,6.5-4.6c4.3-3.1,6.4-6.9,6.2-12.5c-0.2-5.1-1.3-9-5.4-12.2
		c-4.6-3.7-5.9-9.5-7.8-14.8c-2.5-7.1-4.2-14.3-4.5-21.9c-0.1-3-1.7-5.9-2.7-8.9c-0.4-1.2-0.8-2.3-1.4-4c1.6-0.2,2.7-0.3,3.8-0.3
		c1.8-0.1,3.8,0.3,5.5-0.2c3.9-1.1,7,0,9.8,2.6c1.5,1.4,3.3,2.6,4.8,3.9c2.7,2.4,4.7,5.2,4.9,8.8c0.4,5.7,0.4,11.5,0.5,17.2
		c0.1,6.9-0.5,13.7,2.2,20.4c2,5,3.5,10.2,4.6,15.5c0.7,3.4-0.9,5.2-4.4,4.8c-5.3-0.7-9,2.1-13.1,4.5c-0.6,0.3-0.9,1.2-1.4,1.8
		c0.8,0.3,1.5,1.1,2.3,1c8-0.8,16-1.7,24-2.7c6.5-0.8,13-1.7,19.5-2.6c1.2-0.2,2.3-0.5,3.5-0.8c0.1-0.4,0.2-0.8,0.3-1.2
		c-1.8-0.9-3.7-2.6-5.5-2.6c-6.6,0-10.8-3.8-14.8-8.3c-1.1-1.3-2.3-2.5-3.5-3.7c0.1-0.2,0.2-0.5,0.3-0.7c0.8,0.1,1.5,0.2,2.3,0.5
		c4.5,1.6,8.8,1.9,13.5,0.6c5.8-1.6,11.4-0.1,16.8,2.1c1.1,0.4,2.2,1,3.6,1.6c0.3-4.2,0.6-7.8,0.7-11.4c0.1-4.8,1.8-8.8,5.1-12.5
		c3.5-3.9,6.4-8.3,9.9-12.9c0.3,0.8,0.7,1.6,0.8,2.3c0.1,5.4-1.3,10.5-3.7,15.3c-1.1,2.2-2.1,4.6-2.7,7c-0.3,1.2,0.4,2.7,1.3,4.1
		c3.5-5.4,9.6-9.2,8.6-16.5c-0.8-6.3,3-9.6,7.8-12.2c5.8-3.1,11.8-5.8,17.6-8.8c4.7-2.5,9.3-5,13.8-7.8c5.7-3.5,11.5-5.1,18.1-2.8
		c1.3,0.5,2.6,1,4,1.1c5.5,0.7,8.3,4.3,10.4,9c0.6,1.4,1.7,3.1,2.9,3.5c4.9,1.4,7.1,5.1,8.2,9.4c1.1,4.3,4.3,6,7.8,7.6
		c1.5,0.7,3,1.1,4.6,1.6c2.8,0.9,4,2.6,4.6,5.7c1,5.4,2.2,10.7,4.5,15.9c2.8,6.4,3.1,13.2-1.2,19.7c-1.6,2.5-2.2,5.7-3.2,8.6
		c-0.5,1.4-0.9,2.9-1.3,4.3c-0.6,2.4-1.1,4.9-1.5,7.3c-0.5,2.7-0.9,5.3-3.4,7.3c-1.2,0.9-1.8,2.9-2.1,4.4c-1,5.2-1.5,10.2-4.4,15
		c-5.2,8.6-11.6,10.5-20.3,9.6c-2.1-0.2-3.3,0.3-4.9,1.6c-4.1,3.5-8.3,7.2-14.4,6.2c-0.6-0.1-1.2-0.1-1.7-0.3
		c-8-3.5-16.5-4-25.1-4.2c-4.2-0.1-8-1.1-11-4.2c-0.4-0.4-0.8-0.8-1.6-1.6c-0.7,2.5-1.2,4.2-1.9,6.6c-1.4-1.4-2.4-2.3-3.2-3.3
		c-4.7-6.2-8.9-12.9-15.6-17.4c-1.1-0.7-1.7-3-1.6-4.5c0.1-3.2,1-6.4,1.1-9.6c0.1-1.5-0.6-3.4-1.7-4.5c-0.6-0.5-2.8,0.1-3.9,0.8
		c-3.8,2.2-7.2,5-11.1,6.9c-3.1,1.5-6.7,2-10,3c1.1-0.6,2.1-1.7,3.2-1.8c3.7-0.2,6.3-2.5,9.2-4.3c3.1-1.9,6.3-3.8,9.3-5.9
		c1-0.7,2.3-2.1,2.2-3.1c-0.2-3.8-0.8-7.5-1.5-11.3c-0.4-2.2-1.7-2.5-3.1-1c-3.5,3.8-7.1,7.5-8.8,12.7c-1.3,4-3.7,7-7.5,9
		c-1.8,0.9-3.3,2.4-5.2,3.8C327.4,141.8,328.1,142.4,328.7,143z M401.4,64.9c0.1,0.3,0.2,0.6,0.2,0.9c-0.7,0.3-1.3,0.7-2,0.9
		c-6.1,1.6-12.3,3-18.4,4.6c-6.8,1.8-13,4.3-16.7,11.1c-2.1,3.9-5.2,7.5-8.5,10.4c-5.8,5-6,11-4.3,17.6c0.3,1.3,0.7,2.7,0.9,4
		c0.9,4.9,1.7,9.7,2.6,14.6c0.5,2.8,1.9,5.1,5,5.5c6.2,0.8,12.3,1.5,18.5,2c0.8,0.1,2.4-0.9,2.6-1.6c1.6-5.9,3-11.8,4.4-17.8
		c0.8-3.6,1.5-7.2,2.5-10.7c1.3-4.4,2.7-8.8,4.2-13.1c0.6-1.6,1.2-3.3,2.3-4.6c3.6-4.3,7.4-8.5,11.3-12.6
		c5.1-5.5,9.9-11.2,12.8-18.2c0.6-1.3,1.1-2.7,1.9-4.8c-1.9,0.5-3.1,0.6-4.2,1c-2.4,0.9-4.6,2.2-7,2.9c-6.2,1.8-12.4,3.3-18.7,4.9
		c-4.3,1.1-7.5,3.7-10.3,6.9c0.1,0.3,0.2,0.6,0.3,0.9C387.8,68.1,394.6,66.5,401.4,64.9z M429,79.6c-1.2-0.1-2.1-0.3-2.9-0.1
		c-3.3,0.8-6.5,1.6-9.7,2.5c-0.7,0.2-1.6,0.7-2,1.3c-2.6,4.4-5.6,8.6-7.4,13.2c-2.2,5.8-3.4,12-4.8,18c-0.3,1.1,0.2,2.8,0.9,3.7
		c4.5,6.1,9,12.2,13.7,18.2c3,3.9,6.1,7.8,9.5,11.4c2.3,2.5,4.2,1.8,5.1-1.5c0.3-1,0.6-2.1,0.3-3.1c-0.9-4.1-1.2-8.7-3.3-12.2
		c-3.4-5.8-3.4-11.6-2-17.7c0.8-3.6,0.6-6.8-1-10c-1.3-2.6-1.9-5.4-1-8.4c1.3-4.2,2.5-8.4,3.8-12.5C428.4,81.7,428.6,81,429,79.6z
		 M382.7,137.2c0.2,0.2,0.5,0.3,0.7,0.5c0.8-0.5,1.7-0.8,2.4-1.4c8.8-7.8,14-17.7,16.7-29.1c1.4-6.1,2.4-12.6,6.1-17.9
		c5.2-7.5,10.7-14.7,16-22c2.7-3.7,5.7-7.2,8.1-11.1c2.4-3.8,2.1-5.4-0.8-8.6c-0.5-0.6-2.3-0.9-2.8-0.6c-2.8,2.4-6,4.4-7.4,8.3
		c-2.1,6.2-5.4,11.9-10.1,16.7c-5,5.2-9.9,10.6-14.5,16.2c-1.7,2.1-2.7,4.8-3.7,7.3c-1.2,3.3-2.1,6.8-3.2,10.1
		c-0.9,2.7-1.9,5.4-2.6,8.2c-1.3,5.4-2.5,10.9-3.7,16.4C383.6,132.6,383.2,134.9,382.7,137.2z M362.3,136.5
		c-0.2,1.1-0.4,1.4-0.3,1.6c3.8,7.1,10.3,15.9,20.7,16.1c9.2,0.2,18.4,0.4,27.6,0.5c3.2,0,3.6-1.1,2.1-3.8c-3.1-5.4-6-10.9-9.2-16.2
		c-1.8-3-3-6.4-6.4-8.5c-0.6,0.7-1.1,1.2-1.5,1.7c-2.9,3.3-5.6,6.7-8.6,9.8c-1.5,1.5-3.3,2-5.9,1.4
		C374.8,137.7,368.6,137.3,362.3,136.5z M370.5,152.2c-0.2,0.3-0.4,0.6-0.6,0.8c1.6,2.2,3.2,4.4,4.7,6.6c4.1,6.1,9.4,9.8,17.2,9.7
		c7.1-0.1,14.2,0.3,21,3.1c2.3,1,5.5,1.6,7.6,0.8c3.5-1.3,6.5-4,10.3-6.4c-6.9-5.8-12.8-11.3-21.9-10.7c-7,0.4-14,0.2-21,0
		C381.8,156,375.8,155.8,370.5,152.2z M433.6,43.9c0.1-0.3,0.3-0.6,0.4-0.9c-0.8-0.7-1.4-1.8-2.3-2c-3.1-0.9-6.2-1.6-9.3-2.4
		c-3.8-0.9-7.5-0.6-11,1.4c-2.3,1.3-4.6,2.6-7,3.8c-6.7,3.5-13.5,6.9-20.2,10.4c-2.6,1.3-5.2,2.6-7.6,4c-4.2,2.5-6.8,6.2-6.9,11.2
		c0,1,0.3,2,0.6,3.8c4.3-2.8,8.4-4.7,11.4-7.7c4.2-4.1,9.2-5.6,14.5-6.4c11.4-1.7,21.7-5.6,30.5-13.2
		C428.8,44.4,430.6,42.4,433.6,43.9z M433.5,140.4c0.3,0,0.6,0,0.9-0.1c0.3-0.6,0.8-1.1,0.9-1.8c0.6-4.9,1.4-9.8,1.7-14.7
		c0.7-10.1,1-20.2,1.6-30.3c0.3-5.4,0.9-10.8,1.3-16.1c0.2-2.3-0.7-4.1-3.1-4.8c-2.3-0.7-3.1,0.9-3.7,2.6
		c-2.4,7.2-4.8,14.3-7.1,21.6c-0.4,1.3-0.1,3,0.4,4.2c1.9,4.7,2.9,9.3,1.4,14.4c-0.8,3.1-0.6,6.6-0.1,9.8c0.5,2.9,2.2,5.5,3.3,8.3
		C432,135.9,432.8,138.2,433.5,140.4z M401.4,119.2c-0.3,0.1-0.7,0.3-1,0.4c-0.8,1.9-2.6,3.3-1,5.9c5.2,8.4,10.2,16.9,15.2,25.4
		c1.7,2.9,3.6,5.2,6.7,6.6c2.6,1.2,5.2,2.7,7.2,4.7c4.8,4.8,10.5,4.1,16.2,3c2.2-0.4,4.2-2.3,6.1-3.7c0.6-0.5,1-1.9,0.9-2.7
		c-0.1-0.6-1.3-1.2-2.1-1.3c-3-0.4-6-0.5-8.9-0.9c-2.2-0.3-4.4-0.4-6.4-1.2c-6.2-2.6-11-7.2-15-12.3c-4.2-5.4-7.8-11.3-11.9-16.9
		C405.5,123.7,403.3,121.5,401.4,119.2z M266.3,112.3c1.1,3.7,3.2,5.6,6.3,5.6c6.7,0.1,13.4,0.2,20,0c8.1-0.2,16.1-0.7,24.1-0.9
		c9-0.2,18-0.2,26.9-0.6c1.4-0.1,2.9-1.9,4-3.2c0.2-0.2-1.2-2.2-2.2-2.9c-3.3-2.1-6.3-4.2-11-3.2c-7.1,1.6-14.6,1.9-21.8,3
		c-10.1,1.6-20.3,3.1-30.6,2.7C277,112.8,271.8,112.5,266.3,112.3z M467.1,112.7c5.8-4.3,6.5-13.2,4.2-19.7
		c-2-5.7-4.2-11.2-4.9-17.2c-0.3-2.6-1.9-4-4.3-4.8c-2.2-0.7-4.5-1.3-6.4-2.6c-7.6-5-16.1-4-24.4-3.8c-1.4,0-3.3,0.9-4.2,2
		c-2.8,3.3-5.3,7-7.8,10.5c-0.3,0.5-0.6,1.6-0.4,1.8c0.5,0.4,1.4,0.7,2.1,0.6c2.1-0.5,4.1-1.5,6.3-1.9c2.4-0.4,3.8-1.4,4.5-4
		c1.4-4.7,4.6-5.6,7.9-2.1c1.8,1.9,3.4,1.9,5.5,1.7c1.6-0.2,3.2-0.5,4.8-0.7c4.9-0.7,7.2,0.5,9.7,4.8c1.1,1.9,2.4,3.6,3.6,5.4
		c0.9,1.4,2,2.8,2.7,4.3c2.3,5.2,0.9,10.1-1.5,14.9c-0.5,1-1,2.3-0.7,3.2C464.6,107.8,465.9,110.1,467.1,112.7z M155.7,125.2
		c2.3-0.8,3.1-2.5,3.2-4.6c0.3-4.6,0.4-9.2,0.6-13.8c0.1-2.9,0.3-5.7,0.3-8.6c0-1.4-0.6-2.5-2.4-2.1c-3.2,0.8-6.5,1.4-9.7,2.4
		c-1,0.3-2.2,1.5-2.3,2.4c-0.7,7.6-1.3,15.3-1.7,23c0,0.7,1.3,2,1.9,2C149,126,152.4,125.5,155.7,125.2z M451.1,142.5
		c2.4-1.5,5.6-3.6,8.9-5.3c2.3-1.2,3.2-3,3.5-5.5c0.4-3,1.3-6,1.7-9.1c0.3-2.1,0.6-4.2,0.3-6.3c-0.3-2-1.4-3.8-2.2-5.8
		c-0.6-1.4-1.1-2.8-1.9-4c-0.2-0.3-2.2,0.2-2.2,0.3c0.2,2.6-2.2,4.9-0.8,7.7c0.5,0.9,0.2,2.3-0.1,3.4c-1,4.3-2.8,8.3-6.5,11.1
		c-1.6,1.2-2,2.5-1.3,4.5c1,3,0.2,3.6-2.9,3.5c-3-0.1-6,0-8.9,0.3c-0.8,0.1-1.8,1.2-2.2,2c-0.2,0.5,0.5,1.9,1.1,2.1
		C441.7,143.1,445.8,144.1,451.1,142.5z M441.3,86c2.6,0.2,4.4,0.2,6.2,0.5c4.4,0.6,6.4,2.5,7.5,6.9c0.5,2.1,0.9,4.4,1.9,6.2
		c0.7,1.2,2.3,2.2,3.7,2.6c0.6,0.2,2.1-1.2,2.5-2.2c2.1-5,2.8-9.9-0.9-14.7c-1.9-2.5-3.5-5.3-5.3-8c-1.4-2.1-3.1-3.2-5.8-2.9
		c-2.3,0.3-4.6,0.2-6.8,0.6c-1,0.2-2.6,1.1-2.7,1.9C441.2,79.9,441.4,82.9,441.3,86z M143.6,99.2c-4,0.9-7.4,1.4-10.6,2.4
		c-1,0.3-2.2,1.8-2.4,2.9c-0.8,5.6-1.3,11.2-2,16.8c-0.2,1.8,0.5,2.7,2,2.9c2.2,0.4,4.3,0.6,6.5,0.9c4.2,0.6,4.6,0.2,4.9-3.8
		c0.4-4.4,0.9-8.9,1.2-13.3C143.5,105.2,143.5,102.4,143.6,99.2z M318.7,93.9c2.6,2.5,4.8,5.7,9,5.8c3.4,0.1,6.5,1.2,9.3,3.1
		c3.6,2.4,7.4,4.5,11.5,7c0.3-3.2,0.5-5.7,0.8-8.1c0.4-4.5-0.2-5.3-4.2-7.4c-8.4-4.4-17.1-2.8-25.8-1.2
		C319.2,93,319.1,93.3,318.7,93.9z M19.1,111.3c2.8,7.3,3.9,8.1,9.6,8.3c6.9,0.2,13.8,0.4,20.6,0.7c4.1,0.2,4.5-0.3,3.3-4.1
		c-0.1-0.4-0.5-0.9-0.4-1.3c0.9-2.8-0.9-3.1-2.9-3.2c-9.1-0.4-18.1-0.8-27.2-1.1C21.3,110.5,20.3,111,19.1,111.3z M238.5,64.7
		c-0.4-3.2-0.8-5.6-1-8.1c-0.2-2.7-1.5-3.9-4.2-3.9c-5.1,0-10.1-0.1-15.2-0.3c-6.1-0.3-6.5,0-5,5.9c0.2,0.8,0.3,1.7,0.8,2.3
		c0.9,1,2,2.3,3.1,2.4C223.8,63.6,230.8,64.1,238.5,64.7z M256.5,49.1c-1-2.2-2-4.4-3.1-6.6c-0.8-1.6-1.9-1.7-3.3-0.5
		c-3.3,3-6.8,5.9-10,8.9c-0.6,0.6-1.1,1.8-1.1,2.6c0.2,2.5,0.7,5,1,7.5c0.3,2.3,1.4,3.3,3.8,2.1c3-1.6,6.2-3,9.2-4.7
		C258.7,55.2,258.6,55.1,256.5,49.1z M137.8,99.4c0-0.1,0-0.1,0-0.2c0.4-0.1,0.9-0.3,1.3-0.4c3.2-1.1,3.2-1.6,1.1-4.2
		c-2.7-3.3-5.4-6.6-8-9.9c-3.7-4.6-4.4-4.8-9.6-2.2c-0.8,0.4-1.6,0.9-2.4,1.4c-2,1.1-2.2,2.3-0.7,4.1c3,3.5,5.7,7.2,8.8,10.6
		c0.9,1,2.7,1.7,4.2,1.8C134.2,100.4,136,99.7,137.8,99.4z M234.9,44.8c-0.9-3.4-1.9-3.9-5.4-3.9c-4.6,0-9.2-0.1-13.8-0.2
		c-3.5-0.1-4,0.3-4.1,3.8c0,1,0,2.1,0,3.1c0.1,1.7,0.8,2.7,2.7,2.8c5.2,0.1,10.3,0.4,15.5,0.7C236.5,51.4,236.7,51.3,234.9,44.8z
		 M229.3,110.8c-1,0.7-1.9,1.1-2.5,1.7c-0.8,0.7-1.3,1.7-2,2.5c1,0.4,2,1.1,3,1.2c10.5,0.7,21.1,1.4,31.6,2c1.5,0.1,3.4,0.5,3.6-2.1
		c0.2-2.7-0.7-3.9-3.3-4.1c-0.6-0.1-1.1-0.1-1.7-0.1c-7.1-0.3-14.2-0.5-21.3-0.8C234.1,111.1,231.6,110.9,229.3,110.8z M170.8,111.8
		c2.8,3,7.3,4.9,10.6,4.8c7.9-0.4,15.8-0.8,23.7-1.1c2.7-0.1,5.5-0.1,8.2-0.6c1.1-0.2,1.9-1.6,2.9-2.4c-0.9-0.6-1.8-1.4-2.8-1.8
		c-0.7-0.3-1.6-0.1-2.4-0.1c-5.8,0.2-11.7,0.6-17.5,0.7c-7,0.1-14,0.1-21,0.1C172,111.2,171.6,111.5,170.8,111.8z M126.9,123.2
		c0.3-2.1,0.6-3.5,0.8-4.9c0.3-2.8,0.5-5.7,0.9-8.5c1-6.9,0.3-7.6-6.6-5.8c-1.7,0.5-3.6,0.7-4,3.1c-0.5,3.2-1.3,6.3-2,9.4
		c-0.4,1.7,0,2.9,1.8,3.5C120.7,121,123.5,122,126.9,123.2z M217,64.8c0,5.3,3.2,9.5,7.6,10.2c3.3,0.5,6.6,0.9,9.9,1.2
		c0.7,0.1,2.1-0.5,2.2-1.1c0.7-2.8,1.2-5.7,1.8-8.8C230.9,65.8,223.9,65.3,217,64.8z M194.1,117.4c-0.2,0.4-0.3,0.7-0.5,1.1
		c2.6,1.8,5,3.9,7.7,5.4c4.1,2.2,4.3,5.5,3.4,9.4c-1.1,5-2,10.1-3.1,15.2c-0.4,2.1-0.3,3.8,1.9,4.8c0.5-0.3,0.9-0.5,1-0.8
		c2.7-6.3,5.5-12.6,8.1-19c0.3-0.9-0.2-2.7-1-3.3c-4.5-3.9-9.1-7.7-13.9-11.3C196.9,118,195.4,117.8,194.1,117.4z M213.2,29.3
		c-0.3,2.3-0.3,4.4-0.8,6.3c-0.6,2.5,0.4,3.5,2.7,3.5c4.9,0.2,9.9,0.3,14.8,0.5c1.9,0.1,2.4-1,2.3-2.6c-0.1-2.5-4.3-7.7-6.6-7.8
		C221.5,29.1,217.4,29.3,213.2,29.3z M289.6,37.8c-1.4,4.7-2.7,9.2-3.9,13.8c-0.2,0.8,0.2,1.8,0.6,2.6c1,1.8,2.2,3.5,3.4,5.2
		c2.3,3.3,3.7,3.3,5.7-0.3c2.7-4.9,0.9-9.9,0.3-14.9C295.2,41,292.6,39.4,289.6,37.8z M257.5,58.9c-0.4-0.1-0.7-0.3-0.9-0.2
		c-5.2,2.5-10.3,4.9-15.4,7.6c-0.6,0.3-1,1.5-1.2,2.3c-0.3,1.3-0.3,2.7-0.6,4.1c-0.6,2.4,0.5,3.4,2.7,3c2.3-0.3,4.5-0.9,6.7-1.6
		c1.3-0.4,3.1-1,3.7-2.1c2-3.6,3.5-7.5,5.2-11.3C257.9,60.2,257.6,59.4,257.5,58.9z M285,179.3c-1.1,2.9-1.8,4.8-2.5,6.7
		c-0.4,1.2-0.9,2.4-1,3.6c-0.1,0.8,0.1,1.9,0.6,2.5c1.9,2.7,3.9,5.3,6,7.9c0.5,0.6,1.7,1.2,2.2,1c2.4-0.9,6.7-7.3,4.8-9.7
		C292.1,187.5,288.8,183.8,285,179.3z M237.3,47.4c0.4,1.8,1.5,2.3,2.9,1.1c3.2-2.7,6.5-5.5,9.5-8.4c0.5-0.5,0.7-2,0.4-2.7
		c-1.1-2.3-2.5-4.4-3.8-6.5c-1.2-2-2.4-1.7-3.7,0c-1.9,2.4-4,4.7-5.9,7.1c-0.6,0.7-1.1,1.9-0.9,2.7
		C236.1,42.9,236.7,45.1,237.3,47.4z M127.6,100.5c-3.5-4.2-6.9-8.5-10.5-12.6c-0.3-0.4-1.2-0.7-1.5-0.5c-2.2,1.6-4.4,3.2-6.4,5
		c-0.3,0.3,0.2,1.9,0.8,2.7c1.2,1.6,2.8,3,4.1,4.6C117.7,104.1,122.5,104.5,127.6,100.5z M350.2,95c0.3,0.1,0.6,0.2,0.9,0.4
		c1-1,2-2.1,3.1-3c2.5-2,3.5-4.3,2.7-7.5c-0.8-3.4-0.2-6.7,1.9-9.8c2.3-3.4,3.6-7.3,3.5-11.7c-3.6,4-7.6,7.9-10,12.6
		C349.1,81.7,350.6,88.6,350.2,95z M213.6,88.3c-1.8-3.4-3.3-6.6-5.1-9.6c-2.5-4.1-8-4.7-11.4-1.3c-0.5,0.5-0.8,1.7-0.6,2.3
		C198.9,86.8,205.7,90.4,213.6,88.3z M182.1,125.8c-2.5-6.2-3.9-7-10.3-5.4c-1.3,0.3-2.7,0.6-4,0.9c-3.9,0.8-4.3,1.7-2.3,5
		c0.5,0.9,0.8,2.1,1.5,2.7c0.9,0.8,2.2,1.6,3.3,1.6c3.1,0,6.2-0.5,9.3-0.7C182.9,129.6,183.4,128.9,182.1,125.8z M212.5,18.5
		c0-0.2,0-0.3-0.1-0.5c0.4-0.1,0.8-0.3,1.2-0.4c1.7-0.4,3.4-0.7,5.1-1c-1.2-1.6-2.2-3.4-3.6-4.8c-2.3-2.1-4.4-1.3-4.7,1.8
		c-0.3,4.1-0.6,8.3,1.4,12.1c0.5,1,1.9,1.9,3,2c2.5,0.2,5,0,7.5-0.1c1.1-0.1,2.1-0.3,3.9-0.5c-1.8-2.6-2.8-5.4-4.7-6.5
		C218.9,19.2,215.5,19.1,212.5,18.5z M214.6,91.4c-4.2-0.8-7.8-1.6-11.6-1.2c-0.6,0.1-1.3,0.7-1.6,1.2c-1.5,2.5-2.9,5-4.2,7.5
		c-0.7,1.4-0.3,2.5,1.5,2.7c2.5,0.3,5,0.8,7.5,0.8c1.1,0,2.7-0.6,3.2-1.4C211.2,98.1,212.6,95,214.6,91.4z M274,138.6
		c0.3-0.1,0.7-0.2,1-0.3c4.1-1.4,4.4-2.1,1.6-5.3c-1.7-2-3.9-3.6-5.7-5.4c-2.6-2.7-5-3-8-0.7c-1.6,1.2-2,2.5-0.8,4.1
		c1.4,1.9,2.9,3.8,4.5,5.6C269.5,140.1,269.5,140.1,274,138.6z M357.7,137.2c-1.5,3.6-1.6,7.3-1.3,11c0.1,0.6,0.8,1.1,1.2,1.6
		c4.2,4.5,8.5,9,12.8,13.4c0.7,0.7,1.5,1.2,2.7,2C373.1,161.1,361,139.4,357.7,137.2z M278.1,62.7C278.1,62.7,278.2,62.7,278.1,62.7
		c0.7,1.7,1.1,3.6,2,5.1c0.5,0.8,2.1,1.6,2.9,1.4c2.3-0.5,4.6-1.4,6.8-2.5c0.6-0.3,1.3-2.1,1-2.6c-1.7-2.9-3.5-5.7-5.5-8.3
		c-1.9-2.4-5-2.5-7.8-0.7c-2.3,1.5-0.5,3.3-0.3,4.9C277.4,61,277.8,61.8,278.1,62.7z M225.6,86.2c-1.6-2.9-3-5.9-4.7-8.7
		c-0.5-0.8-1.7-1.5-2.7-1.6c-1.9-0.3-3.9-0.2-5.8-0.2c-2.5,0-3,0.7-1.9,2.8c1.5,3,3,6,4.8,8.7c0.8,1.1,2.4,1.8,3.8,2.3
		c1.1,0.4,2.5,0.3,3.7,0.4C226.5,90.1,226.8,89.7,225.6,86.2z M272,175.5c1.3,0.6,2.4,1.5,3.5,1.6c7.1,0.5,8.2-0.3,9.7-7.4
		c0.1-0.7,0.4-1.3,0.6-2c0.8-2,0-2.8-2-2.8c-2.9,0.1-5.8,0-8.6,0.4c-1.1,0.2-2.6,1.4-2.8,2.4C271.9,170.2,272.1,172.6,272,175.5z
		 M442.1,155.1c2.3-0.7,7.2-6.5,7.1-8.5c0-0.6-1.3-1.6-2.1-1.7c-2.6-0.5-5.3-0.7-8-0.8c-1,0-2.2,0.2-2.9,0.8c-1.6,1.4-3,3.1-4.2,4.9
		c-0.5,0.7-0.6,2.5-0.2,2.7C435,154.5,438.7,155.2,442.1,155.1z M292.3,97c0.4,0.1,0.7,0.3,1.1,0.4c2.1-3.4,4.2-6.8,6.3-10.3
		c0.3-0.4-0.2-1.3-0.4-2c-0.9-4.1-1.9-8.2-2.8-12.3c-0.2-0.8-0.4-1.6-0.7-3c-1,1-1.8,1.4-2,2c-0.9,3.2-2.2,6.4-2.4,9.6
		c-0.3,3.8,0.4,7.7,0.7,11.6C292.1,94.4,292.2,95.7,292.3,97z M243,25.9c-2.3-2.1-4.6-4.3-7.2-6.2c-0.4-0.3-2.2,0.3-2.8,1
		c-5,5.9-4.9,6-0.8,12.3c0.2,0.4,0.5,0.8,0.7,1.2c1.1,1.8,2.5,2,3.9,0.4c1.9-2.1,3.8-4.3,5.6-6.5C242.9,27.7,242.8,26.9,243,25.9z
		 M288.2,165.7c-0.8,4.4-1.5,8-2.1,11.6c0,0.3,0.3,0.6,0.5,0.9c2.3,2.9,4.5,5.8,6.9,8.6c0.4,0.4,1.1,0.7,1.7,0.7
		c0.3,0,0.7-0.8,0.8-1.3c0.3-3.3,0.7-6.6,0.8-10c0-1.1-0.3-2.4-1-3.2C293.6,170.7,291.2,168.6,288.2,165.7z M431.7,62.3
		c5.1,0.3,9.7,0.6,14.2,0.7c3.2,0.1,3.5-0.8,2.5-3.8c-1.7-5.2-6.2-6.4-10.6-7.6c-0.5-0.1-1.6,0.9-2,1.7c-1.1,2.1-1.9,4.4-2.8,6.6
		C432.7,60.5,432.2,61.3,431.7,62.3z M241.2,88.1c0.2,0.2,0.4,0.4,0.6,0.6c2.6-2.4,5.3-4.6,7.6-7.3c1.1-1.3,1.2-3.5,1.8-5.3
		c-1.8,0-3.7,0-5.5,0.1c-6.2,0.2-9.1,3.6-9.6,9.7c-0.2,2.6-0.1,3.2,2.5,2.8C239.4,88.5,240.3,88.3,241.2,88.1z M249.5,136.4
		c2,1.6,4,2.8,5.4,4.4c2.8,3.1,5.9,2.9,9.3,1.3c2.3-1.1,2.7-2.1,1.1-4.2c-1.6-2.1-3.1-4.2-4.8-6.3c-0.4-0.5-1.6-1.2-1.9-1.1
		C255.7,132.4,251.9,132.9,249.5,136.4z M284,49c0.9-3.2,1.5-6.5,2.6-9.5c0.7-2,1.4-4.1-0.6-5.2c-2-1.1-4.4-1.5-6.7-1.7
		c-0.6-0.1-1.8,1.3-2.1,2.3C275.5,39.6,278.7,46.4,284,49z M143.2,53.4c-1.8,6.8,1.4,11.9,7.6,12.9c1.5,0.2,2.9,0.5,4.4,0.6
		c0.8,0.1,1.7-0.1,2.5-0.2c-0.1-0.7-0.2-1.5-0.4-2.2C155.5,57.3,148.9,56.2,143.2,53.4z M279.5,138.3c-2.9,1-5.6,1.9-8.3,2.9
		c-0.5,0.2-1.1,0.6-1.2,1.1c-0.8,3.5-1.4,7-2.1,10.6c0.4,0.3,0.8,0.6,1.1,0.9c2-1.1,4.1-2,6.1-3.2
		C280.5,147.4,281.4,144.9,279.5,138.3z M170.1,135.3c1.6,4.4,3.5,5.6,8.3,5.3c1.1-0.1,2.3-0.1,3.4-0.1c1.9,0.1,2.8-0.7,2.8-2.6
		c0-1.4,0.2-2.8-0.2-4.1c-0.3-0.9-1.4-2.1-2.1-2.1c-3.5,0-7.1,0.2-10.6,0.6C170.1,132.4,169.3,133.4,170.1,135.3z M227,91.8
		c-3.5-0.2-6.1-0.6-8.7-0.5c-0.9,0-2,0.7-2.5,1.4c-1.4,2.3-2.7,4.8-3.9,7.2c-0.9,1.7-0.2,2.7,1.6,2.7c2.3,0,4.6-0.1,6.8-0.5
		c0.9-0.1,2-0.8,2.4-1.6C224.3,97.9,225.4,95.2,227,91.8z M268,143c-8.9,1-10.3,2.1-11.9,9.4c-0.8,3.7-0.2,4.5,3.5,3.7
		c2.1-0.4,5.3-1,6-2.5C267.1,150.5,267.2,146.8,268,143z M274.9,162.6c0.4,0.3,0.7,0.9,1,0.9c3.2,0,6.4-0.1,9.6-0.3
		c0.5,0,1.1-0.6,1.3-1c0.8-2,1.5-4.1,2-6.2c0.5-1.9-0.6-2.7-2.5-2.8c-4.5-0.1-8.6,0.1-9.9,5.6c-0.1,0.6-0.7,1.2-1,1.8
		C275.2,161.2,275.1,161.9,274.9,162.6z M278.5,192.9c-4.4-2.5-8.1-1.1-9.5,3.4c-0.1,0.3-0.2,0.7-0.3,1c-2.2,7-2,7.3,5.2,6.9
		c1.7-0.1,2.6-0.6,2.8-2.3C277.2,199,277.9,196.1,278.5,192.9z M108.6,107.5c1.5-0.7,3.1-1.5,4.6-2.2c1.9-0.8,2-2.2,0.8-3.5
		c-1.7-2-3.5-4-5.4-5.7c-0.4-0.4-2.1-0.2-2.5,0.3c-1.1,1.2-1.9,2.8-2.9,4.2c-1.2,1.7-1.8,3.2,0,5.1
		C104.8,107.6,106,109.2,108.6,107.5z M287.1,105.5c0.7,0.3,0.9,0.4,1.1,0.4c0.3,0,0.7-0.1,1-0.3c3.7-2.5,7.7-4.1,12.3-3.3
		c0.5,0.1,1.9-1.5,1.8-2.2c-0.4-3.3-1.2-6.6-1.9-10.6C296.3,95.3,291.8,100.3,287.1,105.5z M163.1,101.8c-0.5,0.1-1,0.2-1.4,0.3
		c-0.5,6.2-1,12.4-1.5,18.6c0.4,0.2,0.7,0.3,1.1,0.5c2.9-1.9,5.8-3.8,7.5-7c0.2-0.5,0.4-1.2,0.1-1.7
		C167,108.9,165,105.3,163.1,101.8z M281.7,194.3c-0.4,0.1-0.8,0.1-1.2,0.2c-0.8,3.5-2.1,7-2.2,10.5c-0.1,1.7,2,3.7,3.5,5.1
		c0.3,0.3,2.6-1.5,3.8-2.5c0.8-0.6,1.5-1.5,2-2.4c0.4-0.7,0.7-1.9,0.4-2.4C286,199.9,283.8,197.1,281.7,194.3z M283.1,178.7
		c-3.5,0.1-6,0.1-8.4,0.4c-0.6,0.1-1.5,0.9-1.6,1.5c-0.7,3.2-1.2,6.4-1.8,9.9c2.6-0.1,4.6-0.2,6.6-0.4c0.5,0,1.2-0.4,1.4-0.8
		C280.6,186,281.7,182.7,283.1,178.7z M150.1,67.9c-0.2,0.3-0.4,0.6-0.6,0.9c0.6,0.9,1.1,1.8,1.8,2.7c1.3,1.6,2.6,3.2,3.9,4.9
		c1.6,2.1,5.9,3.7,8.3,2.8c0.5-0.2,1-1,1-1.5c0.1-2.5-3.8-8-6.2-8.6C155.5,68.4,152.7,68.3,150.1,67.9z M458.3,141.5
		c-4.4,0.4-10,7.7-11.1,13.4c4.8,1.9,8,1,9.2-3C457.4,148.7,457.6,145.2,458.3,141.5z M116.8,107c-1.1-0.1-2.1-0.6-3-0.3
		c-2.2,0.7-4.5,1.5-6.2,2.8c-1.2,0.9-1.9,2.8-2,4.4c-0.1,0.7,1.3,1.9,2.3,2.5c1,0.7,2.3,1,3.5,1.4c1.9,0.8,3,0.2,3.5-1.9
		c0.5-2.3,1.2-4.7,1.7-7C116.6,108.5,116.7,108,116.8,107z M200.7,116.9c-0.1,0.5-0.3,1-0.4,1.4c2.4,1.5,4.7,3.1,7.1,4.5
		c0.5,0.3,1.4,0.2,2,0c3.1-1,6.1-2,9.1-3.2c0.8-0.3,1.3-1.3,1.9-2c-0.8-0.3-1.5-1-2.3-1c-3.4-0.1-6.9,0.1-10.3,0.1
		C205.4,116.7,203.1,116.8,200.7,116.9z M226.8,120.9c-0.1-0.4-0.2-0.8-0.3-1.2c-1.5-0.1-3.1-0.7-4.4-0.3c-3.6,1.2-7,2.8-10.5,4.3
		c-0.5,0.2-1.3,1.3-1.2,1.4c1.1,1.5,2.1,3,3.5,4.1c0.5,0.4,2.1-0.2,2.9-0.7c2.6-1.5,5.1-3.2,7.5-4.9
		C225.3,122.9,226,121.8,226.8,120.9z M166.8,134.5c-2.1,4.2-6.2,7.3-3.2,12.4c0.7,1.2,1.4,2.5,2.2,3.7c0.9-1.2,1.8-2.4,2.7-3.6
		c0.2-0.3,0.4-0.6,0.5-0.9C171.7,140.9,171.6,139.9,166.8,134.5z M256,144.9c-0.7-1.1-0.8-1.5-1.2-1.8c-1.3-1.1-2.6-2.3-3.9-3.3
		c-2.4-1.8-7.8,0.2-8.6,3.1c-0.1,0.4-0.1,1.1,0.1,1.3c1.7,1.3,3.5,3.4,5.2,3.4C250.2,147.5,252.9,145.9,256,144.9z M157.2,134.2
		c0.9,1.8,1.3,3.3,2.2,4.5c0.4,0.5,2.1,0.9,2.1,0.8c1.4-3,3.1-6,3.8-9.2c0.3-1.2-1.7-3-2.7-4.5c-1.2,0.9-2.5,1.7-3.5,2.8
		C157.6,130.4,155.6,132,157.2,134.2z M442.8,120.9c3.7,1.2,8.7,0,10.1-2.8c1.1-2.3,1.5-5,1.6-7.6c0.1-1.3-1.1-2.6-1.9-4.1
		C448.2,110.9,448,117.3,442.8,120.9z M292.3,69.2c-2.3-0.3-7.8,1.2-9,2.5c-0.3,0.3-0.6,0.7-0.6,1.2c-0.4,2.1,4.4,8.2,6.5,8.7
		C290.1,77.5,291.2,73.5,292.3,69.2z M161.7,88.3c-0.3,0.3-0.5,0.6-0.8,0.9c1.1,0.6,2.1,1.7,3.2,1.7c1.1,0,2.7-0.8,3.3-1.7
		c2.5-4.1,0.4-7.9-4.4-8.2c-0.8,0-1.6-0.3-2.4-0.2c-0.7,0.1-1.9,0.4-2,0.8c-0.2,0.7,0.1,1.7,0.5,2.4
		C159.8,85.5,160.8,86.9,161.7,88.3z M282.3,139c-0.3,3-0.1,5.8-0.9,8.4c-1.4,4.5-1.6,4.4,3.1,4.2c0.8,0,1.7,0.1,2.4-0.1
		c0.7-0.2,1.5-0.8,1.7-1.4C289.7,146.7,286.3,140.6,282.3,139z M291.1,155.2c-0.7,2.2-1.3,4-1.7,5.9c-0.2,0.9-0.2,2.2,0.3,2.9
		c1.3,1.8,2.9,3.5,4.5,5.1c0.4,0.4,1.2,0.6,1.8,0.5c0.3-0.1,0.7-0.9,0.7-1.4c0-2.2-0.1-4.3-0.3-6.5
		C296.2,158.6,294.6,156.6,291.1,155.2z M199.7,89.6c-3.2-0.1-5.6-0.6-7.8-0.1c-1.5,0.3-2.9,1.8-4.1,3.1c-0.2,0.3,0.7,2.3,1.4,2.6
		c2,1,3.2,4,6.1,2.9c0.2-0.1,0.4-0.3,0.5-0.4C197.2,95.2,198.3,92.6,199.7,89.6z M159.5,92.5c0.7-4.2-1.2-6.8-4.4-8.4
		c-4.1-1.9-7.3-4.7-10-8.3c-0.8-1-2.1-1.6-3.1-2.4c-0.4,0.4-0.8,0.9-1.1,1.3C147.2,80.6,152.6,87.3,159.5,92.5z M149.8,140.4
		c2.1-1.2,4.2-5,3.7-7.2c-0.3-1.6-4.3-2.6-7-1.8c-1.6,0.5-3.8,5.1-2.5,6.8C145.2,139.6,147.8,139.7,149.8,140.4z M171.8,144.7
		c-0.8,1.4-1.6,2.7-2.3,4.1c-2.7,5.3-2.7,5.3,2.6,7.6c0.1,0,0.2,0.2,0.3,0.2c0.8-0.3,2-0.4,2.4-1
		C177.2,151.7,176.2,147.8,171.8,144.7z M227.1,25.3c1.4-1.5,2.6-2.6,3.7-3.9c2.1-2.5,2-3-0.8-4.5c-1-0.5-1.9-1.4-2.9-1.8
		c-1.1-0.4-3.1-0.8-3.5-0.3c-0.8,1-1.3,2.9-0.8,3.9C223.8,21,225.5,22.9,227.1,25.3z M136.7,148.4c4.6,2.3,11.8-0.7,12.3-6.6
		C143.2,140.7,138.5,143.2,136.7,148.4z M255.3,147.7c-0.3-0.2-0.5-0.4-0.8-0.6c-2.2,0.7-4.5,1.2-6.4,2.3c-1.1,0.7-1.8,2.5-2,4
		c-0.1,0.6,1.5,1.5,2.5,2c0.9,0.5,2,0.8,3,0.7c0.7,0,1.9-0.6,2.1-1.2C254.5,152.6,254.8,150.2,255.3,147.7z M197.6,85.1
		c-1.9-5-4.8-5.7-8.7-2.2c-1.9,1.6-1.5,3.9,0.8,4.4c2.1,0.5,4.3,0.5,6.5,0.5C197.9,87.7,198.2,86.6,197.6,85.1z M174.9,144
		c1.5,4.5,4.2,6.9,6.3,6.1c1.3-0.5,2.9-4.6,2.4-6.4c-0.4-1.4-4.6-2.4-7.1-1.5C175.7,142.6,175.3,143.6,174.9,144z M233.1,86.2
		c0.4-0.1,0.8-0.3,1.1-0.4c0.4-2.1,0.9-4.2,1.1-6.3c0.1-0.5-0.7-1.6-1.3-1.7c-1.9-0.4-3.9-0.7-5.8-0.6c-0.5,0-1.6,1.7-1.4,1.9
		C228.9,81.6,231,83.9,233.1,86.2z M439.1,121.8c-2,5.9,1.8,8.2,7.5,9.9C447.7,128.1,443.5,122.4,439.1,121.8z M455.9,107.1
		c0.2-0.2,0.4-0.4,0.7-0.6c-1.1-3.2-2-6.4-3.4-9.4c-0.5-1-1.9-1.8-3.1-2.2c-0.4-0.1-1.8,1.4-1.9,2.3c0,1.1,0.6,2.4,1.3,3.4
		c1.2,1.6,2.7,3,4,4.5C454.4,105.7,455.2,106.4,455.9,107.1z M154.8,81.1c-0.7-4.3-5.1-9.9-8.2-10.5C145.1,74,150.3,80.9,154.8,81.1
		z M451.9,92.4c-1.8-3.3-7.3-5.5-9.9-4.3c-0.7,0.3-1.4,1.3-1.4,2c0,0.7,0.7,2.2,1.1,2.2C444.9,92.6,448.3,92.5,451.9,92.4z
		 M439.5,111.2c4.4-2.8,6.9-8.8,6.1-14.2c-1.4,2.3-2.3,4.8-4.1,6.4C439.1,105.6,439.3,108,439.5,111.2z M271.8,215.3
		c0.5,0,0.9-0.1,1.4-0.1c0.6-2.6,1.4-5.1,1.6-7.8c0-0.4-2.5-1.3-3.9-1.4c-0.6,0-1.9,1.6-1.8,2.1C269.8,210.6,270.9,213,271.8,215.3z
		 M65.5,120.4c-1.5-3.3-4.3-6-6.9-6.4c-0.6-0.1-1.3,0.1-1.8,0.4c-0.2,0.2-0.1,1,0,1.5C58.4,120,60.8,121.3,65.5,120.4z M455.9,120.1
		c-0.3-0.3-0.6-0.7-0.9-1c-2.4,1.4-4.9,2.7-7,4.4c-0.5,0.4,0.2,2.7,0.7,3.9c0.1,0.3,2.4,0.3,2.8-0.2
		C453.1,124.9,454.4,122.4,455.9,120.1z M279.6,52.7c1.1-0.3,2.1-1,0.7-2.9c-0.7-1-1.2-2.3-2-3.2c-0.7-0.7-1.7-1.1-2.6-1.7
		c-0.2,0.9-0.5,1.8-0.5,2.8c-0.1,0.8,0.1,1.6,0.1,2.4C275.4,52.9,276.1,53.5,279.6,52.7z M441.6,118.5c3.3-0.7,4.7-1.9,3.6-4.3
		c-0.4-1-1.6-2.5-2.4-2.5c-1.7,0-4.2,4-3.4,5.5C439.9,118,441.3,118.4,441.6,118.5z M210.4,144.4c0.4,0.2,0.8,0.4,1.2,0.6
		c1.5-1.9,3.1-3.8,4.6-5.8c1.8-2.3,1.4-3.3-2.1-5C212.9,137.6,211.6,141,210.4,144.4z M223.9,127.1c-0.3-0.3-0.7-0.7-1-1
		c-1.9,1.3-3.9,2.5-5.7,4c-0.5,0.5-0.3,1.9-0.4,2.8c1,0.1,2.5,0.6,2.9,0.1C221.4,131.2,222.6,129.1,223.9,127.1z M225.8,100
		c3.3-1,5.2-5.2,4.1-8.7C227.2,93.8,226.7,97,225.8,100z M443.6,134.9c0.1-0.5,0.2-0.9,0.3-1.4c-1.7-1.1-3.3-2.1-5-3.2
		c-0.3,0.2-0.7,0.4-1,0.6c0.1,1.3,0,3.7,0.4,3.8C440,135.2,441.8,134.9,443.6,134.9z M199.6,147.3c1.6-2.4,2.6-4.4,1.4-7.1
		C196.1,142.8,196,143.1,199.6,147.3z M146.3,130c1.9,0,3.8,0,5.7-0.2c0.5,0,1.1-0.7,1.3-1.3c0.1-0.3-0.4-1.1-0.8-1.3
		C151.3,126.5,147.3,127.7,146.3,130z M446.9,111.4c1.6-1.8,3.7-3.1,1.9-5.6c-0.3-0.4-1.8-0.5-2.3-0.2
		C444.6,106.9,444.7,109,446.9,111.4z M278.3,209c-0.5,0-0.9,0.1-1.4,0.1c-0.5,2.2-0.9,4.3-1.5,6.9c2.7,0.1,3.9-1.4,4.1-2.9
		C279.8,211.8,278.7,210.3,278.3,209z M439.6,101.5c0.5,0.2,1,0.3,1.5,0.5c0.8-1.7,1.7-3.3,2.3-5.1c0.2-0.6-0.4-1.4-0.7-2.2
		c-0.8,0.4-2,0.6-2.2,1.1C440,97.6,439.9,99.6,439.6,101.5z M174.5,117.6c0.1-0.3,0.1-0.7,0.2-1c-1.3-0.4-2.8-1.4-3.9-1.1
		c-1.4,0.4-2.9,1.7-2.2,4.1C170.6,118.9,172.5,118.2,174.5,117.6z M197.7,140.8c1.1-1.7,1.7-2.8,2.4-3.8c-1.5-0.4-3-0.9-4.5-1.1
		c-0.1,0-0.9,1.8-0.7,2.4C195.3,139.2,196.4,139.7,197.7,140.8z M226.2,83c1.1,2.3,1.7,4,2.7,5.6c0.2,0.4,1.4,0.5,2,0.3
		c0.3-0.1,0.6-1.3,0.4-1.7C230.5,85.4,229.7,83.3,226.2,83z M270.7,124.3c0.3-0.2,0.5-0.4,0.8-0.6c-0.3-3.3-1.8-4.9-5.8-5.4
		C267.4,120.3,269,122.3,270.7,124.3z M148,52.7c-1.2-2.7-2.6-4.6-5.4-4.9C142.3,51.2,143.4,52.3,148,52.7z M97.6,110.9
		c0.2,0.2,0.4,0.4,0.6,0.6c1.2-0.5,2.6-0.9,3.5-1.7c0.5-0.5,0.1-1.9,0.1-2.9c-0.9,0.2-2,0-2.5,0.6C98.5,108.4,98.2,109.7,97.6,110.9
		z M196.4,133.8c1.8,0.4,3.1,0.8,4.4,0.8c1.8,0,2.2-1,1.1-2.5C200.5,130.2,199.3,130.4,196.4,133.8z M180.7,158.6
		c-0.8-1.3-1.6-2.6-2.5-3.9c-0.6,0.7-1.6,1.4-1.6,2.2C176.6,158.9,178.1,159.4,180.7,158.6z M163.1,97.7c0.7,0,1.3,0,2,0.1
		c0.1-1.5,0.2-3,0.3-4.5c-0.7,0-1.5,0-2.2-0.1C163.1,94.7,163.1,96.2,163.1,97.7z M102.9,110.6c-1.2,1.4-2.2,2.4-3.1,3.5
		c0.9,0.3,1.8,1,2.6,0.8C104.3,114.5,104.3,113.1,102.9,110.6z M227,103.6c-0.5-0.4-1-0.8-1.4-1.2c-1.5,1.8-3,3.7-4.4,5.5
		c0.4,0.3,0.7,0.6,1.1,0.9C223.9,107.1,225.5,105.3,227,103.6z M183.5,88.4c-0.3,0.6-0.5,1.2-0.8,1.8c1.1,0.5,2.2,1,3.3,1.4
		c0.1,0,0.6-1.2,0.9-1.9C185.8,89.2,184.6,88.8,183.5,88.4z"/>
</g>
<g>
	<path d="M54.1,81.6c-2.6-1.9-5.2-3.4-8-4.5c-2.8-1.1-5.5-1.6-8.2-1.6c-3.7,0-7.1,0.9-10.3,2.8c-3.2,1.9-6.1,4.6-8.5,8.1
		c-2.3,3.4-4,7.3-5.2,11.7c-1.2,4.4-1.8,9-1.8,13.8c0,4.9,0.6,9.5,1.8,13.9c1.2,4.4,3,8.3,5.2,11.7c1.8,2.6,3.8,4.7,6.1,6.5
		c2.3,1.7,4.7,3,7.2,3.7c1.2,0.3,2.4,0.6,3.7,0.7c1.3,0.2,2.6,0.2,3.9,0.2c4.4,0,7.9-0.6,10.6-1.9c2.8-1.3,5-2.9,6.6-4.9
		c1.7-2.1,2.9-4.3,3.8-6.9c0.4-1.2,0.9-2.3,1.2-3.5c0.4-1.2,0.7-2.4,1-3.6h0.3v19.9h-0.9c-0.2-0.3-0.4-0.5-0.7-0.7
		c-0.3-0.2-0.5-0.4-0.8-0.7c-0.8-0.5-1.8-0.7-3-0.7c-1,0-2.1,0.2-3.3,0.6c-0.5,0.2-1.1,0.4-1.8,0.6s-1.4,0.4-2.1,0.6
		c-0.7,0.3-1.5,0.5-2.3,0.7c-0.8,0.2-1.7,0.4-2.6,0.6c-0.9,0.1-1.9,0.2-2.8,0.3c-1,0.1-2,0.1-3.1,0.1c-0.4,0-0.8,0-1.2,0
		c-0.4,0-0.8,0-1.2,0c-5.2,0-9.9-0.9-14.3-2.8c-4.4-1.9-8.2-4.5-11.4-7.8c-3.2-3.3-5.7-7.3-7.5-11.8c-1.8-4.5-2.8-9.4-2.8-14.8
		c0-5.3,0.9-10.2,2.8-14.7s4.4-8.5,7.6-11.8c3.2-3.3,7-5.9,11.4-7.8c4.4-1.9,9.1-2.8,14.3-2.8c2.6,0,5.2,0.5,7.8,1.4
		c2.6,0.9,5.1,2.2,7.6,3.9c0.3,0.1,0.6,0.2,0.9,0.3c0.3,0.1,0.6,0.2,0.9,0.3c1,0.5,2,0.7,3.1,0.7c1.4,0,2.4-0.3,3.1-0.8
		c0.3-0.2,0.5-0.4,0.7-0.6c0.2-0.2,0.4-0.4,0.6-0.7h1v18.5h-0.4c-0.3-1.2-0.7-2.3-1-3.5c-0.4-1.2-0.8-2.3-1.2-3.5
		c-0.8-2.4-2.1-4.5-3.9-6.5c-0.1-0.1-0.2-0.3-0.5-0.6c-0.4-0.4-0.8-0.8-1.2-1.1C55,82.3,54.6,82,54.1,81.6
		C54.2,81.7,54.1,81.7,54.1,81.6z M38.5,89.6l-0.7,1.8l-0.7-1.8l0.7-0.7L38.5,89.6z M37.8,133.6l0.7,0.7l-0.7,1.7l-0.7-1.7
		L37.8,133.6z"/>
	<path d="M119,146c-0.7,0.6-1.7,1.2-3,1.7c-1.1,0.4-2.5,0.7-4.3,0.7c-3.1,0-5.3-0.7-6.8-2c-1.2-1.1-2.1-2.5-2.5-4.3
		c-0.4-1-0.6-2.2-0.6-3.6v-4.8c-0.8,4.4-2.6,7.9-5.4,10.4c-2.8,2.5-6.1,3.8-10,3.8c-2.9,0-5.4-0.2-7.6-0.7c-2.2-0.4-4-1.2-5.4-2.1
		c-2.6-1.6-3.9-4-3.9-7.2c0-2.1,0.4-4.1,1.2-5.8c0.8-1.8,1.9-3.3,3.4-4.5c1.5-1.3,3.3-2.2,5.3-2.9c2.1-0.7,4.3-1.1,6.9-1.1
		c5.4,0,9.3-1.1,11.8-3.3c2.4-2.2,3.7-5.8,3.7-10.7c0-4.6-1-8.1-2.9-10.4c-1.7-2.1-4.3-3.1-7.5-3.1c-2.9,0-5.6,0.7-8.2,2.1
		c-2.6,1.4-4.8,3.3-6.6,5.7c1.3-0.7,2.7-0.9,4.2-0.6c1.5,0.3,2.7,1,3.8,2.2c1.2,1.4,1.8,2.9,1.6,4.8c-0.1,1.8-0.9,3.4-2.2,4.6
		c-1.4,1.2-3,1.7-4.8,1.5c-1.8-0.1-3.3-0.9-4.5-2.2c-0.8-1-1.4-2.1-1.5-3.3c-0.2-1.3-0.1-2.4,0.4-3.5c1.5-4.1,3.8-7.1,7-9.1
		c3.2-1.9,6.8-2.9,10.9-2.9c12.6,0,18.9,6,18.9,18.1v13.1v15.5c0,1.9,0.3,3.1,0.9,3.8c0.6,0.6,1.4,1,2.5,1c0.8,0,1.5-0.1,2.2-0.4
		c0.8-0.3,1.6-0.7,2.2-1.2L119,146z M101.9,114.3l-0.4,1.1c-0.8,3-2.3,5.2-4.6,6.6c-2.3,1.4-5.5,2-9.7,2c-2.7,0-4.9,1.2-6.6,3.7
		c-1.7,2.5-2.5,5.7-2.5,9.8c0,3.2,0.7,5.5,2,7.1c1.5,1.8,3.7,2.7,6.8,2.7c4.2,0,7.6-1.5,10.3-4.5c2.7-3,4.2-7.1,4.7-12.3V114.3z
		 M92.3,105.1l-0.7,1.8l-0.7-1.8l0.7-0.7L92.3,105.1z"/>
	<path d="M153,98c1.2,1.4,1.7,3,1.5,4.8c-0.1,1.8-0.9,3.3-2.2,4.5c-1.4,1.2-2.9,1.7-4.7,1.5c-1.8-0.1-3.3-0.9-4.5-2.2
		c-0.8-1-1.4-2.2-1.5-3.6c-1.5,0.8-2.9,2-4.2,3.4c-1.3,1.4-2.3,3.1-3,4.9c-0.1,0.1-0.2,0.6-0.4,1.3c-0.2,0.7-0.5,1.5-0.7,2.2v22.5
		c0,2.1,0.1,3.7,0.2,5c0.2,1.3,0.4,2.3,0.7,3c0.3,0.7,0.7,1.3,1.1,1.5c0.4,0.3,0.9,0.4,1.4,0.4h0.6l-0.2,0.2h-16.2v-0.1v-0.1h-0.1
		h0.5c0.6,0,1.1-0.1,1.5-0.4c0.4-0.3,0.8-0.8,1.1-1.5c0.3-0.7,0.5-1.8,0.7-3c0.2-1.3,0.2-3,0.2-5v-31.2c0-2.1-0.1-3.7-0.2-5
		c-0.2-1.3-0.4-2.3-0.7-3c-0.3-0.7-0.7-1.2-1.1-1.5c-0.5-0.3-0.9-0.4-1.4-0.4h-0.5v-0.1h12.5v18.1c0.2-0.7,0.4-1.4,0.6-1.9
		c0.2-0.6,0.3-0.9,0.4-1.1c1.3-4.3,3-7.7,5.3-10.4c2.2-2.7,4.6-4.3,7.2-4.8c1.2-0.3,2.3-0.3,3.5,0.1C151.1,96.5,152.1,97.1,153,98z
		 M141.6,122.5l0.7,0.6l-0.7,1.8l-0.7-1.8L141.6,122.5z"/>
	<path d="M173.5,98.1V136c0,2.3,0,4.2,0,5.6c0,1.4,0,2.5,0.1,3.3c0.1,0.8,0.1,1.3,0.2,1.5c0.1,0.3,0.2,0.4,0.4,0.4h5.7v0.8h-6.3
		c-2.1,0-3.7-0.2-4.8-0.6c-1.2-0.4-2-1-2.6-1.9c-0.5-0.9-0.9-2.1-1-3.6c-0.1-1.5-0.2-3.3-0.2-5.5V98.1h-8.4v-0.8h8.4V82.3l8.5-7.1
		v22.1h6.4v0.8H173.5z"/>
	<path d="M208.6,147.4c3.2,0,6.1-1,8.7-2.9c2.7-1.9,4.8-4.7,6.4-8.2l0.9,0.5l-0.3,0.5c-1.7,3.5-3.9,6.2-6.7,8.1
		c-2.8,1.9-5.8,2.9-9.1,2.9c-7.4,0-13.3-1.8-17.5-5.4c-4.3-3.6-6.8-8.9-7.7-15.7c0-0.3,0-0.5,0-0.7c0-0.2,0-0.5,0-0.8
		c0-0.1,0-0.2,0-0.3c0-0.1,0-0.2,0-0.3c0-0.5,0-1,0-1.5c0-0.5,0-1,0-1.5c0-8.4,1.9-14.9,5.6-19.4c3.8-4.5,9.2-6.7,16.2-6.7
		c7.5,0,13.1,2.5,16.8,7.4c3.3,4.4,5,11,5.1,19.5h-34.4v0.1v2.1c0.3,7.3,1.9,12.9,4.6,16.8C199.8,145.5,203.7,147.4,208.6,147.4z
		 M192.5,122.1h25.9v-0.2c0-7.9-1-14-3.1-18.4c-2.4-4.7-5.8-7.1-10.2-7.1c-3.9,0-7,2.1-9.2,6.2c-2.3,4.3-3.4,10.7-3.4,19.1V122.1z
		 M205.8,104.7l0.7,0.7l-0.7,1.8l-0.7-1.8L205.8,104.7z"/>
	<path d="M263.8,98c1.2,1.4,1.7,3,1.5,4.8c-0.1,1.8-0.9,3.3-2.2,4.5c-1.4,1.2-2.9,1.7-4.7,1.5c-1.8-0.1-3.3-0.9-4.5-2.2
		c-0.8-1-1.4-2.2-1.5-3.6c-1.5,0.8-2.9,2-4.2,3.4c-1.3,1.4-2.3,3.1-3,4.9c-0.1,0.1-0.2,0.6-0.4,1.3c-0.2,0.7-0.5,1.5-0.7,2.2v22.5
		c0,2.1,0.1,3.7,0.2,5c0.2,1.3,0.4,2.3,0.7,3c0.3,0.7,0.7,1.3,1.1,1.5c0.4,0.3,0.9,0.4,1.4,0.4h0.6l-0.2,0.2h-16.2v-0.1v-0.1h-0.1
		h0.5c0.6,0,1.1-0.1,1.5-0.4c0.4-0.3,0.8-0.8,1.1-1.5c0.3-0.7,0.5-1.8,0.7-3c0.2-1.3,0.2-3,0.2-5v-31.2c0-2.1-0.1-3.7-0.2-5
		c-0.2-1.3-0.4-2.3-0.7-3c-0.3-0.7-0.7-1.2-1.1-1.5c-0.5-0.3-0.9-0.4-1.4-0.4h-0.5v-0.1h12.5v18.1c0.2-0.7,0.4-1.4,0.6-1.9
		c0.2-0.6,0.3-0.9,0.4-1.1c1.3-4.3,3-7.7,5.3-10.4c2.2-2.7,4.6-4.3,7.2-4.8c1.2-0.3,2.3-0.3,3.5,0.1C261.9,96.5,262.9,97.1,263.8,98
		z M252.4,122.5l0.7,0.6l-0.7,1.8l-0.7-1.8L252.4,122.5z"/>
	<path d="M360.3,145.7c-0.1,0.1-0.4,0.3-0.8,0.6c-0.3,0.1-0.5,0.3-0.7,0.4c-0.2,0.2-0.5,0.3-0.8,0.4c-0.7,0.2-1.5,0.4-2.3,0.6
		c-0.5,0.1-1,0.2-1.6,0.2c-0.5,0-1.1,0-1.8,0c-2.6,0-4.8-0.3-6.4-0.9c-1.7-0.7-3-1.6-4-2.8c-1.1-1.3-1.8-2.8-2.2-4.5
		c-0.5-2-0.9-4.1-1.1-6.4l-0.7-8.9c-0.3-3.2-0.9-5.8-1.9-7.7c-0.7-1.2-1.5-2.2-2.4-3.1c-1.7,0.2-3.4,0.3-5.2,0.3h-18.6v23.8
		c0,3.5,0.2,5.9,0.7,7.3s1.1,2.2,2,2.6H298c0.8-0.3,1.4-1.2,1.9-2.6s0.7-3.8,0.7-7.3V85c0-3.5-0.2-5.9-0.7-7.3
		c-0.5-1.4-1.1-2.2-1.9-2.6h30.5c15.1,0,22.6,7.2,22.6,21.5c0,8.7-4.3,14.1-13,16.2c0.1,0.1,0.1,0.1,0.1,0.1c0,0,0.1,0,0.1,0.1
		c0.9,0.4,1.8,0.9,2.6,1.4c0.8,0.5,1.6,1.2,2.4,1.9c0.7,0.7,1.3,1.5,1.9,2.3c0.5,0.8,1,1.8,1.3,2.9c0.4,1.3,0.7,2.7,0.9,4.3
		c0.1,0.9,0.1,1.8,0.2,2.6c0.1,0.8,0.1,1.7,0.2,2.6c0.1,0.9,0.1,1.8,0.1,2.6c0,0.8,0.1,1.6,0.1,2.4c0.1,0.8,0.1,1.6,0.2,2.3
		c0.1,0.7,0.2,1.3,0.3,1.8c0.4,1.7,1,3.2,1.9,4.6c0.9,1.5,2.4,2.2,4.3,2.2c0.7,0,1.6-0.2,2.7-0.5c0.8-0.3,1.6-0.7,2.3-1.4
		L360.3,145.7z M328.5,113.5c4.5,0,7.8-1.4,10.1-4.3c2.3-2.8,3.4-7,3.4-12.5c0-6.9-1.1-12.1-3.4-15.7c-2.3-3.5-5.7-5.3-10.2-5.3
		h-18.6v37.9H328.5z M324.1,87.1l0.7,0.7l-0.7,1.8l-0.7-1.8L324.1,87.1z M324.1,91.1l0.7,0.7l-0.7,1.8l-0.7-1.8L324.1,91.1z"/>
	<path d="M380.4,94.9c7.2,0,12.8,2.3,16.6,6.9c3.8,4.6,5.8,11.2,5.8,19.8c0,8.6-1.9,15.2-5.8,19.8c-3.8,4.6-9.4,6.9-16.6,6.9
		c-7.2,0-12.7-2.3-16.6-6.9c-3.8-4.6-5.7-11.2-5.7-19.8c0-8.6,1.9-15.2,5.7-19.8C367.7,97.2,373.2,94.9,380.4,94.9z M380.4,147.8
		c4.2,0,7.5-2.2,9.8-6.7c2.3-4.5,3.4-11,3.4-19.5c0-8.1-1.1-14.4-3.2-18.8c-2.2-4.9-5.6-7.3-10-7.3c-4.2,0-7.5,2.2-9.7,6.7
		c-2.2,4.5-3.4,11-3.4,19.5c0,8.2,1.1,14.5,3.2,18.9C372.7,145.3,376,147.8,380.4,147.8z M381.1,105.3l0.7,0.7l-0.7,1.8l-0.7-1.8
		L381.1,105.3z"/>
	<path d="M439.7,123.1c3.2,2.9,4.8,6.3,4.8,10.3c0,2.3-0.5,4.3-1.4,6.1c-0.9,1.8-2.3,3.4-4,4.7c-1.7,1.3-3.8,2.3-6.2,3
		s-5.1,1.1-8,1.1c-3.7,0-7.1-0.8-10.3-2.5c-3.2-1.7-5.9-4-7.9-6.9c-1.1-1.4-1.6-2.9-1.4-4.6c0.2-1.7,0.9-3.2,2.2-4.3
		c1.4-1.2,3-1.8,4.8-1.6c1.8,0.1,3.3,0.9,4.5,2.3c1.2,1.4,1.7,2.9,1.5,4.7c-0.1,1.8-0.9,3.3-2.2,4.4c-0.9,0.8-1.9,1.3-2.9,1.5
		c-1.1,0.2-2.1,0.2-3.1-0.1c0.5,0.5,0.9,0.9,1.4,1.3c0.5,0.4,0.9,0.7,1.4,1.1c3.7,2.6,7.7,3.9,12.2,3.9c3.3,0,5.9-1.2,7.9-3.6
		c2-2.4,2.9-5.5,2.9-9.5c0-2.3-1.1-4.2-3.3-5.7s-5.3-2.6-9.2-3.1c-5.7-0.7-10.1-2.5-13.2-5.3c-3.2-2.8-4.7-6.4-4.7-10.6
		c0-2.2,0.4-4.2,1.3-6c0.9-1.8,2.1-3.4,3.7-4.7c1.6-1.3,3.5-2.3,5.7-3c2.2-0.7,4.7-1.1,7.4-1.1c2.3,0,4.5,0.3,6.6,1
		c2.1,0.7,4,1.9,5.7,3.5c0.3,0.2,0.5,0.4,0.7,0.7c1.2,1.4,1.8,2.9,1.6,4.7c-0.1,1.8-0.9,3.3-2.2,4.5c-1.4,1.2-2.9,1.7-4.7,1.5
		c-1.8-0.1-3.3-0.9-4.5-2.2c-1.2-1.4-1.7-2.9-1.5-4.7c0.1-1.8,0.9-3.3,2.2-4.5c0.7-0.6,1.5-1.1,2.4-1.4c0.9-0.3,1.8-0.3,2.7-0.2
		c-2.6-1.5-5.5-2.2-8.9-2.2c-3,0-5.3,1.2-7.1,3.6c-1.8,2.4-2.7,5.6-2.7,9.6c0,2.3,1,4.2,3,5.7c2,1.5,4.9,2.6,8.6,3.1
		C431.5,118.4,436.3,120.3,439.7,123.1z M419.8,104.9l0.8-0.7l0.6,0.7l-0.6,1.8L419.8,104.9z"/>
	<path d="M472,147.4c3.2,0,6.1-1,8.7-2.9c2.7-1.9,4.8-4.7,6.4-8.2l0.9,0.5l-0.3,0.5c-1.7,3.5-3.9,6.2-6.7,8.1
		c-2.8,1.9-5.8,2.9-9.1,2.9c-7.4,0-13.3-1.8-17.5-5.4c-4.3-3.6-6.8-8.9-7.7-15.7c0-0.3,0-0.5,0-0.7c0-0.2,0-0.5,0-0.8
		c0-0.1,0-0.2,0-0.3c0-0.1,0-0.2,0-0.3c0-0.5,0-1,0-1.5c0-0.5,0-1,0-1.5c0-8.4,1.9-14.9,5.6-19.4c3.8-4.5,9.2-6.7,16.2-6.7
		c7.5,0,13.1,2.5,16.8,7.4c3.3,4.4,5,11,5.1,19.5h-34.4v0.1v2.1c0.3,7.3,1.9,12.9,4.6,16.8C463.2,145.5,467,147.4,472,147.4z
		 M455.8,122.1h25.9v-0.2c0-7.9-1-14-3.1-18.4c-2.4-4.7-5.8-7.1-10.2-7.1c-3.9,0-7,2.1-9.2,6.2c-2.3,4.3-3.4,10.7-3.4,19.1V122.1z
		 M469.1,104.7l0.7,0.7l-0.7,1.8l-0.7-1.8L469.1,104.7z"/>
</g>
</svg>
