<?xml version="1.0" encoding="utf-8"?>
<!-- Generator: Adobe Illustrator 23.0.1, SVG Export Plug-In . SVG Version: 6.00 Build 0)  -->
<svg version="1.1" id="Layer_1" xmlns="http://www.w3.org/2000/svg" xmlns:xlink="http://www.w3.org/1999/xlink" x="0px" y="0px"
	 viewBox="0 0 200 97.3" style="enable-background:new 0 0 200 97.3;" xml:space="preserve">
<style type="text/css">
	.st0{opacity:0.5;}
	.st1{fill:#DDDDDD;}
	.st2{fill:#FFFFFF;}
</style>
<g class="st0">
	<path class="st1" d="M136,61.4c-1,0.3-2.1,0.5-3.5,0.9c0.4-0.6,0.6-0.9,0.8-1.2c0.8-0.7,1.6-1.4,2.5-1.9c2-1.2,3.5-2.7,4.3-4.9
		c0.4-1.1,1.1-2.1,1.8-3.3c-10-0.6-19.9,0.8-30.3,0.3c0.5,0.9,0.9,1.5,1.2,2c0.7,1.1,1.4,2.2,2.1,3.2c1.1,1.4,2.2,2.9,3.4,4.1
		c3.7,3.7,4.9,8.2,4.5,13.3c-0.2,2.8-0.3,5.6-0.3,8.4c0,1.4-0.5,2.6-1.4,3.7c-2.8,3.1-5.7,6.3-8.5,9.4c-0.2,0.2-0.5,0.3-1,0.5
		c-0.8-2.3-1.5-4.4-2.3-6.6c-0.6-1.7-0.5-3.4,0.1-5.1c0.4-1.2,0.9-2.4,1.3-3.7c0.5-1.6,0.8-3.2,0.3-4.8c-0.5-1.8-0.3-3.4,0.5-5.1
		c0.8-1.7,1.6-3.4,2.1-5.3c-0.3,0.1-0.7,0.2-1,0.3c-2.5,0.8-5,1.8-7.5,2.3c-1.2,0.3-2.6-0.2-3.9-0.4c-1.9-0.4-3.8-1-5.7-1.5
		c0.7-1.5,1.1-3.1,2.1-4.3c1.6-1.8,3.5-3.4,5.3-4.9c1.1-0.9,2.4-1.5,3.6-2.3c0.7-0.4,1.5-0.9,2.2-1.3c0.8-0.5,0.8-1,0-1.4
		c-0.5-0.3-1.1-0.4-1.7-0.4c-4.1-0.3-8.1-0.5-12.2-0.7c-0.4,0-1,0.2-1.2,0.5c-1.4,2.2-2.6,4.6-4.1,6.7c-2.1,2.9-4.4,5.7-6.7,8.6
		c-0.8,1-1,0.8-1.8-0.1c-1.6-1.8-2.3-3.9-3.3-6c-0.2-0.5-0.3-1.1-0.5-1.6c-0.4-1.1-0.1-1.8,1.1-2.3c1-0.5,1.9-1.3,3.1-2.1
		c-1.2-0.9-2.1-1.6-3.1-2.3c-1.5-1.2-3.1-1.9-5.1-1.5c-1.2,0.2-1.4,0.4-0.7,1.5c1.2,2.1,2.3,4.4,2.1,6.9c-0.1,1.8-0.6,3.5-0.7,5.3
		c-0.1,1.1,0,2.2,0.1,3.3c0.1,0.8,0.3,1.6,0.5,2.7c-1-0.3-1.6-0.4-2.3-0.7c-2-0.8-4-1.7-6-2.6c-1.6-0.8-1.7-2.6-2.5-3.9
		c-0.8-1.4-1.6-2.8-2.5-4.5c-0.5,0.7-0.7,1-1,1.3c-1.4,1.7-2.8,3.5-4.2,5.2c-0.3,0.3-0.9,0.5-1.3,0.7c0-0.4-0.1-1-0.1-1
		c-1-0.1-2.1-0.4-3,0c-0.9,0.3-1.4,1.3-1.1,2.7c0.7-0.1,1.4,0,1.9-0.2c0.9-0.4,1.6-1,2.4-1.5c-0.5,0.6-0.9,1.2-1.4,1.7
		c-1.2,1.1-2.4,2.2-3.6,3.3c-0.8-1.6-0.4-4.5,0.7-5.7c1.4-1.4,2.7-2.7,4-4.2c0.4-0.5,0.7-1.2,0.9-1.8c0.3-1,0.4-2.1,0.6-3.2
		c0.1-0.8-0.1-1.3-1-1.3c-4.8,0-9.2-1.7-13.5-3.5c-1.8-0.8-3.6-0.8-5.5-0.4c-0.3-1.1-1.4-2-0.8-3.2c0-0.1-0.6-0.6-0.9-0.6
		c-4.2,0.4-8.5,0.8-12.7,1.3c-0.2,0-0.4,0.2-0.8,0.4c1,1,1.9,2,2.9,2.8c0.3,0.3,1,0.3,1.6,0.2c2.1-0.2,4.1-0.6,6.2-0.8
		c1.2-0.1,2.3-0.2,3.5-0.3c0,0.1,0,0.2,0,0.4c-1.3,0.2-2.6,0.4-3.9,0.6c-1.1,0.2-2.2,0.3-3.2,0.5c-0.9,0.1-2,0.1-1.2,1.7
		c-1.9-0.3-3.5-0.6-5.1-0.8c-3-0.2-5.9-0.4-8.9-0.5C10.1,52,7.5,51.9,5,51.8c-1.2,0-2-0.5-2.4-1.6c-0.4-1-0.9-1.9-1.4-3.1
		c1.5-0.1,2.7-0.2,4-0.2c3.5,0.1,7,0,10.4,0.3c5.3,0.5,10.5-0.2,15.7-0.7c1.3-0.1,2.6-0.3,3.9-0.4c0.8-0.1,1.3-0.4,1.8-1.1
		c1.1-1.9,2.2-3.9,3.7-5.6c1.3-1.5,3.1-2.7,4.8-3.7c1.6-1,3.4-1.7,5-2.5c0.2,0.6,0.2,1.4,0.6,1.9c1.6,2,3.3,4,4.9,6
		c0.3,0.3,0.8,0.7,1.1,0.6c1.7-0.2,3.4-0.5,5.3-0.9c-0.3-0.4-0.4-0.7-0.5-0.8c-1.9-2-3.9-3.9-5.7-6.1c-1.4-1.7-2.8-2.1-4.7-1
		c-0.3,0.2-0.7,0.2-1,0.3c1.6-0.7,3.1-1.5,4.7-2.1c1.6-0.6,2.3-1.9,1.2-3.1c-1.9-2.1-1.6-4.6-1.6-7c0-0.6,0-1.2,0-1.8
		c0-0.5,0-0.9,0.2-1.4c2.2,2.3,4.5,4.6,6.5,7c0.9,1.1,1.5,2.5,2.2,3.8c1.2,2.1,2.4,4.1,3.4,6.3c0.4,0.9,0.4,2.1,0.3,3.1
		c-0.3,1.7-0.9,3.3-1.2,4.9c-0.1,0.7,0,1.4,0.2,2.1c0.6,2.2,2.5,2,4,2c3.5,0,7-0.1,10.4-0.2c2,0,4-0.2,6-0.1c1.1,0.1,1.8-0.3,2.5-1
		c0.2-0.2,0.3-0.6,0.4-0.9c-0.3-0.1-0.7-0.3-1-0.3c-2.5,0-5,0.1-7.4,0c-1-0.1-2.1-0.4-2.9-0.9c-2.7-1.9-5.3-4-7.9-6
		c0-0.2,0.1-0.3,0.1-0.5c0.8-0.2,1.6-0.4,2.3-0.6c0.7-0.3,1.5-0.6,2.1-1c1.6-1,3-2.2,4.6-2.9c1.3-0.6,2.8-0.7,4.2-0.8
		c1.1-0.1,2.2,0.1,3.3,0.1c1.1,0,1.3-0.4,0.9-1.4c-0.7-1.6-1.7-3.1-2.2-4.7c-0.5-1.6-0.8-3.3-0.8-4.9c0-2.2,0.3-4.4,0.4-6.7
		c0-0.7,0.2-1.5-0.1-2.1c-1.4-3.4-0.9-6.8-0.2-10.2c0-0.2,0.1-0.4,0.1-0.6c0-0.1,0.1-0.1,0.3-0.3c0.7,0.6,1.4,1.4,2.2,1.9
		c2.2,1.3,4.4,2.7,6.8,3.8c2.6,1.2,4.9,2.6,6.4,5.2c1.7,3,3.5,6,5.1,9.1c1.5,2.8,0.4,5.4-0.7,8c-0.5,1.3-1.1,2.6-1.5,3.9
		c-0.8,2.6-2.5,4.3-4.7,5.6c-2.1,1.3-4.2,2.5-5.4,4.9c-0.4,0.9-1,1.8-1.5,2.7c3.3,1.3,6.7,1.3,10.1,1.4c3.5,0.1,7,0.2,10.6,0.3
		c0.5,0,1-0.1,1.4-0.3c1-0.6,1.9-1.3,2.8-2c1.9-1.3,2.8-3,2.7-5.4c-0.1-2.2-0.6-3.9-2.3-5.3c-2-1.6-2.5-4.1-3.4-6.4
		c-1.1-3.1-1.8-6.2-1.9-9.4c-0.1-1.3-0.8-2.6-1.2-3.8c-0.2-0.5-0.3-1-0.6-1.7c0.7-0.1,1.2-0.1,1.6-0.1c0.8,0,1.6,0.1,2.4-0.1
		c1.7-0.5,3,0,4.2,1.1c0.7,0.6,1.4,1.1,2.1,1.7c1.2,1,2,2.3,2.1,3.8c0.2,2.5,0.2,5,0.2,7.4c0,3-0.2,5.9,0.9,8.8
		c0.9,2.1,1.5,4.4,2,6.7c0.3,1.5-0.4,2.3-1.9,2.1c-2.3-0.3-3.9,0.9-5.6,1.9c-0.3,0.2-0.4,0.5-0.6,0.8c0.3,0.1,0.7,0.5,1,0.4
		c3.5-0.4,6.9-0.8,10.4-1.2c2.8-0.3,5.6-0.7,8.4-1.1c0.5-0.1,1-0.2,1.5-0.3c0-0.2,0.1-0.3,0.1-0.5c-0.8-0.4-1.6-1.1-2.4-1.1
		c-2.9,0-4.7-1.6-6.4-3.6c-0.5-0.5-1-1.1-1.5-1.6c0-0.1,0.1-0.2,0.1-0.3c0.3,0.1,0.7,0.1,1,0.2c1.9,0.7,3.8,0.8,5.8,0.3
		c2.5-0.7,4.9,0,7.3,0.9c0.5,0.2,0.9,0.4,1.6,0.7c0.1-1.8,0.3-3.4,0.3-4.9c0.1-2.1,0.8-3.8,2.2-5.4c1.5-1.7,2.8-3.6,4.3-5.6
		c0.1,0.4,0.3,0.7,0.3,1c0,2.3-0.5,4.5-1.6,6.6c-0.5,1-0.9,2-1.2,3c-0.1,0.5,0.2,1.1,0.6,1.8c1.5-2.3,4.1-4,3.7-7.1
		c-0.3-2.7,1.3-4.2,3.4-5.3c2.5-1.3,5.1-2.5,7.6-3.8c2-1.1,4-2.2,6-3.4c2.5-1.5,5-2.2,7.8-1.2c0.6,0.2,1.1,0.4,1.7,0.5
		c2.4,0.3,3.6,1.8,4.5,3.9c0.3,0.6,0.7,1.4,1.3,1.5c2.1,0.6,3.1,2.2,3.6,4.1c0.5,1.9,1.8,2.6,3.3,3.3c0.6,0.3,1.3,0.5,2,0.7
		c1.2,0.4,1.7,1.1,2,2.5c0.4,2.3,1,4.6,1.9,6.8c1.2,2.8,1.4,5.7-0.5,8.5c-0.7,1.1-0.9,2.4-1.4,3.7c-0.2,0.6-0.4,1.2-0.5,1.9
		c-0.2,1-0.5,2.1-0.7,3.2c-0.2,1.2-0.4,2.3-1.5,3.1c-0.5,0.4-0.8,1.2-0.9,1.9c-0.4,2.2-0.6,4.4-1.9,6.5c-2.2,3.7-5,4.5-8.8,4.1
		c-0.9-0.1-1.4,0.1-2.1,0.7c-1.8,1.5-3.6,3.1-6.2,2.7c-0.2,0-0.5,0-0.7-0.1c-3.5-1.5-7.1-1.7-10.8-1.8c-1.8,0-3.4-0.5-4.7-1.8
		c-0.2-0.2-0.4-0.3-0.7-0.7c-0.3,1.1-0.5,1.8-0.8,2.8c-0.6-0.6-1-1-1.4-1.4c-2-2.7-3.9-5.6-6.7-7.5c-0.5-0.3-0.7-1.3-0.7-1.9
		c0-1.4,0.4-2.8,0.5-4.1c0-0.7-0.3-1.5-0.7-1.9c-0.2-0.2-1.2,0-1.7,0.3c-1.6,0.9-3.1,2.2-4.8,3C138.9,60.7,137.4,61,136,61.4
		c0.4-0.3,0.9-0.8,1.3-0.8c1.6-0.1,2.7-1.1,4-1.9c1.3-0.8,2.7-1.6,4-2.5c0.4-0.3,1-0.9,1-1.3c-0.1-1.6-0.3-3.3-0.6-4.9
		c-0.2-0.9-0.7-1.1-1.3-0.4c-1.5,1.6-3.1,3.3-3.8,5.5c-0.6,1.7-1.6,3-3.3,3.9c-0.8,0.4-1.4,1-2.3,1.6
		C135.4,60.9,135.7,61.2,136,61.4z M167.3,27.7c0,0.1,0.1,0.3,0.1,0.4c-0.3,0.1-0.6,0.3-0.9,0.4c-2.7,0.7-5.3,1.3-8,2
		c-2.9,0.8-5.6,1.9-7.2,4.8c-0.9,1.7-2.2,3.2-3.7,4.5c-2.5,2.2-2.6,4.7-1.8,7.6c0.1,0.6,0.3,1.1,0.4,1.7c0.4,2.1,0.7,4.2,1.1,6.3
		c0.2,1.2,0.8,2.2,2.2,2.4c2.7,0.3,5.3,0.6,8,0.9c0.4,0,1-0.4,1.1-0.7c0.7-2.5,1.3-5.1,1.9-7.7c0.4-1.5,0.6-3.1,1.1-4.6
		c0.5-1.9,1.2-3.8,1.8-5.7c0.2-0.7,0.5-1.4,1-2c1.6-1.9,3.2-3.7,4.9-5.4c2.2-2.4,4.3-4.8,5.5-7.9c0.2-0.6,0.5-1.2,0.8-2.1
		c-0.8,0.2-1.4,0.3-1.8,0.4c-1,0.4-2,1-3,1.3c-2.7,0.8-5.4,1.4-8.1,2.1c-1.9,0.5-3.2,1.6-4.4,3c0,0.1,0.1,0.3,0.1,0.4
		C161.4,29.1,164.4,28.4,167.3,27.7z M179.2,34.1c-0.5,0-0.9-0.1-1.3-0.1c-1.4,0.3-2.8,0.7-4.2,1.1c-0.3,0.1-0.7,0.3-0.8,0.6
		c-1.1,1.9-2.4,3.7-3.2,5.7c-0.9,2.5-1.5,5.2-2.1,7.8c-0.1,0.5,0.1,1.2,0.4,1.6c1.9,2.7,3.9,5.3,5.9,7.9c1.3,1.7,2.6,3.3,4.1,4.9
		c1,1.1,1.8,0.8,2.2-0.7c0.1-0.4,0.2-0.9,0.1-1.3c-0.4-1.8-0.5-3.7-1.4-5.2c-1.5-2.5-1.5-5-0.9-7.6c0.3-1.5,0.2-2.9-0.5-4.3
		c-0.6-1.1-0.8-2.3-0.4-3.6c0.6-1.8,1.1-3.6,1.6-5.4C179,35,179.1,34.6,179.2,34.1z M159.3,58.9c0.1,0.1,0.2,0.2,0.3,0.2
		c0.3-0.2,0.7-0.3,1-0.6c3.8-3.4,6-7.7,7.2-12.6c0.6-2.7,1-5.4,2.6-7.7c2.2-3.2,4.6-6.3,6.9-9.5c1.2-1.6,2.4-3.1,3.5-4.8
		c1-1.7,0.9-2.3-0.3-3.7c-0.2-0.3-1-0.4-1.2-0.2c-1.2,1-2.6,1.9-3.2,3.6c-0.9,2.7-2.3,5.1-4.3,7.2c-2.2,2.2-4.3,4.6-6.2,7
		c-0.7,0.9-1.2,2.1-1.6,3.2c-0.5,1.4-0.9,2.9-1.4,4.4c-0.4,1.2-0.8,2.3-1.1,3.5c-0.6,2.4-1.1,4.7-1.6,7.1
		C159.7,56.9,159.5,57.9,159.3,58.9z M150.5,58.6c-0.1,0.5-0.2,0.6-0.1,0.7c1.6,3.1,4.5,6.9,8.9,7c4,0.1,7.9,0.2,11.9,0.2
		c1.4,0,1.6-0.5,0.9-1.6c-1.3-2.3-2.6-4.7-4-7c-0.8-1.3-1.3-2.8-2.8-3.7c-0.3,0.3-0.5,0.5-0.7,0.8c-1.2,1.4-2.4,2.9-3.7,4.2
		c-0.6,0.7-1.4,0.9-2.5,0.6C155.8,59.2,153.2,59,150.5,58.6z M154,65.4c-0.1,0.1-0.2,0.2-0.3,0.4c0.7,1,1.4,1.9,2,2.9
		c1.8,2.6,4.1,4.2,7.4,4.2c3.1,0,6.1,0.1,9.1,1.4c1,0.4,2.4,0.7,3.3,0.3c1.5-0.6,2.8-1.7,4.5-2.8c-3-2.5-5.5-4.9-9.5-4.6
		c-3,0.2-6.1,0.1-9.1,0C158.9,67,156.3,66.9,154,65.4z M181.2,18.6c0.1-0.1,0.1-0.3,0.2-0.4c-0.3-0.3-0.6-0.8-1-0.9
		c-1.3-0.4-2.7-0.7-4-1c-1.7-0.4-3.3-0.2-4.8,0.6c-1,0.6-2,1.1-3,1.7c-2.9,1.5-5.8,3-8.7,4.5c-1.1,0.6-2.2,1.1-3.3,1.7
		c-1.8,1.1-2.9,2.7-3,4.9c0,0.4,0.1,0.9,0.3,1.6c1.8-1.2,3.6-2,4.9-3.3c1.8-1.8,4-2.4,6.3-2.8c4.9-0.7,9.4-2.4,13.2-5.7
		C179.1,18.9,179.9,18,181.2,18.6z M181.2,60.3c0.1,0,0.2,0,0.4,0c0.1-0.3,0.4-0.5,0.4-0.8c0.3-2.1,0.6-4.2,0.7-6.3
		c0.3-4.4,0.4-8.7,0.7-13.1c0.1-2.3,0.4-4.6,0.6-7c0.1-1-0.3-1.8-1.3-2.1c-1-0.3-1.3,0.4-1.6,1.1c-1,3.1-2.1,6.2-3,9.3
		c-0.2,0.5,0,1.3,0.2,1.8c0.8,2,1.2,4,0.6,6.2c-0.4,1.3-0.3,2.9,0,4.2c0.2,1.2,1,2.4,1.4,3.6C180.6,58.3,180.9,59.3,181.2,60.3z
		 M167.3,51.1c-0.1,0.1-0.3,0.1-0.4,0.2c-0.3,0.8-1.1,1.4-0.4,2.5c2.2,3.6,4.4,7.3,6.6,11c0.7,1.2,1.6,2.2,2.9,2.9
		c1.1,0.5,2.2,1.2,3.1,2c2.1,2.1,4.5,1.7,7,1.3c0.9-0.2,1.8-1,2.6-1.6c0.3-0.2,0.4-0.8,0.4-1.2c0-0.2-0.6-0.5-0.9-0.6
		c-1.3-0.2-2.6-0.2-3.8-0.4c-0.9-0.1-1.9-0.2-2.8-0.5c-2.7-1.1-4.7-3.1-6.5-5.3c-1.8-2.3-3.4-4.9-5.1-7.3
		C169.1,53.1,168.2,52.1,167.3,51.1z M109,48.2c0.5,1.6,1.4,2.4,2.7,2.4c2.9,0.1,5.8,0.1,8.6,0c3.5-0.1,6.9-0.3,10.4-0.4
		c3.9-0.1,7.8-0.1,11.6-0.3c0.6,0,1.2-0.8,1.7-1.4c0.1-0.1-0.5-1-0.9-1.2c-1.4-0.9-2.7-1.8-4.8-1.4c-3.1,0.7-6.3,0.8-9.4,1.3
		c-4.4,0.7-8.7,1.3-13.2,1.2C113.6,48.4,111.4,48.3,109,48.2z M195.7,48.4c2.5-1.9,2.8-5.7,1.8-8.5c-0.9-2.4-1.8-4.8-2.1-7.4
		c-0.1-1.1-0.8-1.7-1.9-2.1c-0.9-0.3-1.9-0.6-2.7-1.1c-3.3-2.2-6.9-1.7-10.5-1.6c-0.6,0-1.4,0.4-1.8,0.8c-1.2,1.4-2.3,3-3.4,4.6
		c-0.2,0.2-0.3,0.7-0.2,0.8c0.2,0.2,0.6,0.3,0.9,0.3c0.9-0.2,1.8-0.7,2.7-0.8c1-0.2,1.6-0.6,1.9-1.7c0.6-2,2-2.4,3.4-0.9
		c0.8,0.8,1.5,0.8,2.4,0.7c0.7-0.1,1.4-0.2,2.1-0.3c2.1-0.3,3.1,0.2,4.2,2.1c0.5,0.8,1,1.6,1.6,2.3c0.4,0.6,0.9,1.2,1.2,1.9
		c1,2.2,0.4,4.4-0.6,6.4c-0.2,0.4-0.4,1-0.3,1.4C194.6,46.2,195.2,47.2,195.7,48.4z M61.3,53.8c1-0.3,1.3-1.1,1.4-2
		c0.1-2,0.2-4,0.3-5.9c0.1-1.2,0.1-2.5,0.1-3.7c0-0.6-0.3-1.1-1-0.9c-1.4,0.3-2.8,0.6-4.2,1c-0.4,0.1-1,0.7-1,1.1
		c-0.3,3.3-0.5,6.6-0.7,9.9c0,0.3,0.5,0.9,0.8,0.9C58.4,54.1,59.9,53.9,61.3,53.8z M188.8,61.2c1.1-0.6,2.4-1.5,3.9-2.3
		c1-0.5,1.4-1.3,1.5-2.4c0.2-1.3,0.5-2.6,0.7-3.9c0.1-0.9,0.2-1.8,0.1-2.7c-0.1-0.9-0.6-1.7-0.9-2.5c-0.2-0.6-0.5-1.2-0.8-1.7
		c-0.1-0.1-0.9,0.1-0.9,0.1c0.1,1.1-1,2.1-0.3,3.3c0.2,0.4,0.1,1,0,1.4c-0.5,1.9-1.2,3.6-2.8,4.8c-0.7,0.5-0.8,1.1-0.6,1.9
		c0.4,1.3,0.1,1.6-1.3,1.5c-1.3,0-2.6,0-3.8,0.1c-0.4,0-0.8,0.5-1,0.9c-0.1,0.2,0.2,0.8,0.5,0.9C184.7,61.4,186.5,61.9,188.8,61.2z
		 M184.6,36.8c1.1,0.1,1.9,0.1,2.7,0.2c1.9,0.2,2.8,1.1,3.2,3c0.2,0.9,0.4,1.9,0.8,2.7c0.3,0.5,1,1,1.6,1.1c0.3,0.1,0.9-0.5,1.1-1
		c0.9-2.1,1.2-4.3-0.4-6.3c-0.8-1.1-1.5-2.3-2.3-3.4c-0.6-0.9-1.4-1.4-2.5-1.2c-1,0.1-2,0.1-3,0.3c-0.4,0.1-1.1,0.5-1.2,0.8
		C184.5,34.2,184.6,35.5,184.6,36.8z M56.1,42.5c-1.7,0.4-3.2,0.6-4.6,1.1c-0.4,0.1-0.9,0.8-1,1.2c-0.4,2.4-0.6,4.8-0.9,7.3
		c-0.1,0.8,0.2,1.1,0.9,1.3c0.9,0.2,1.9,0.3,2.8,0.4c1.8,0.3,2,0.1,2.1-1.6c0.2-1.9,0.4-3.8,0.5-5.7C56,45.1,56,43.9,56.1,42.5z
		 M131.6,40.2c1.1,1.1,2.1,2.4,3.9,2.5c1.5,0,2.8,0.5,4,1.3c1.5,1,3.2,1.9,5,3c0.1-1.4,0.2-2.4,0.3-3.5c0.2-1.9-0.1-2.3-1.8-3.2
		c-3.6-1.9-7.4-1.2-11.2-0.5C131.8,39.8,131.8,40,131.6,40.2z M2.4,47.7c1.2,3.2,1.7,3.5,4.1,3.6c3,0.1,5.9,0.2,8.9,0.3
		c1.8,0.1,2-0.1,1.4-1.8c-0.1-0.2-0.2-0.4-0.2-0.6c0.4-1.2-0.4-1.4-1.2-1.4c-3.9-0.2-7.8-0.3-11.7-0.5C3.3,47.4,2.9,47.6,2.4,47.7z
		 M97,27.6c-0.2-1.4-0.4-2.4-0.5-3.5c-0.1-1.2-0.6-1.7-1.8-1.7c-2.2,0-4.4,0-6.5-0.1c-2.6-0.1-2.8,0-2.2,2.5c0.1,0.3,0.1,0.7,0.3,1
		c0.4,0.4,0.8,1,1.3,1C90.7,27.2,93.7,27.4,97,27.6z M104.8,20.9c-0.4-0.9-0.9-1.9-1.3-2.8c-0.3-0.7-0.8-0.8-1.4-0.2
		c-1.4,1.3-2.9,2.5-4.3,3.8c-0.3,0.3-0.5,0.8-0.5,1.1c0.1,1.1,0.3,2.2,0.4,3.2c0.1,1,0.6,1.4,1.6,0.9c1.3-0.7,2.7-1.3,4-2
		C105.7,23.5,105.7,23.5,104.8,20.9z M53.6,42.6C53.6,42.6,53.6,42.5,53.6,42.6c0.2-0.1,0.4-0.2,0.6-0.3c1.4-0.5,1.4-0.7,0.5-1.8
		c-1.2-1.4-2.3-2.8-3.5-4.3c-1.6-2-1.9-2.1-4.1-0.9c-0.4,0.2-0.7,0.4-1,0.6c-0.9,0.5-0.9,1-0.3,1.8c1.3,1.5,2.5,3.1,3.8,4.6
		c0.4,0.4,1.2,0.7,1.8,0.8C52,43,52.8,42.7,53.6,42.6z M95.5,19.1c-0.4-1.5-0.8-1.7-2.3-1.7c-2,0-4,0-5.9-0.1
		c-1.5-0.1-1.7,0.1-1.8,1.6c0,0.4,0,0.9,0,1.3c0,0.7,0.3,1.2,1.2,1.2c2.2,0.1,4.5,0.2,6.7,0.3C96.2,21.9,96.2,21.9,95.5,19.1z
		 M93.1,47.5c-0.4,0.3-0.8,0.5-1.1,0.7c-0.3,0.3-0.6,0.7-0.8,1.1c0.4,0.2,0.9,0.5,1.3,0.5c4.5,0.3,9.1,0.6,13.6,0.9
		c0.6,0,1.5,0.2,1.5-0.9c0.1-1.2-0.3-1.7-1.4-1.8c-0.2,0-0.5,0-0.7,0c-3.1-0.1-6.1-0.2-9.2-0.3C95.1,47.6,94,47.6,93.1,47.5z
		 M67.8,47.9c1.2,1.3,3.1,2.1,4.6,2.1c3.4-0.2,6.8-0.3,10.2-0.5c1.2-0.1,2.4,0,3.5-0.3c0.5-0.1,0.8-0.7,1.2-1
		c-0.4-0.3-0.8-0.6-1.2-0.8c-0.3-0.1-0.7-0.1-1,0c-2.5,0.1-5,0.2-7.6,0.3c-3,0.1-6,0-9.1,0C68.3,47.7,68.2,47.8,67.8,47.9z
		 M48.9,52.9c0.1-0.9,0.3-1.5,0.3-2.1c0.1-1.2,0.2-2.5,0.4-3.7c0.4-3,0.1-3.3-2.8-2.5c-0.7,0.2-1.6,0.3-1.7,1.4
		c-0.2,1.4-0.6,2.7-0.9,4.1c-0.2,0.7,0,1.3,0.8,1.5C46.2,51.9,47.4,52.4,48.9,52.9z M87.7,27.7c0,2.3,1.4,4.1,3.3,4.4
		c1.4,0.2,2.9,0.4,4.3,0.5c0.3,0,0.9-0.2,1-0.5c0.3-1.2,0.5-2.5,0.8-3.8C93.7,28.1,90.7,27.9,87.7,27.7z M77.9,50.4
		c-0.1,0.2-0.1,0.3-0.2,0.5c1.1,0.8,2.2,1.7,3.3,2.3c1.8,1,1.9,2.4,1.5,4.1c-0.5,2.2-0.9,4.4-1.3,6.5c-0.2,0.9-0.1,1.6,0.8,2.1
		c0.2-0.1,0.4-0.2,0.4-0.3c1.2-2.7,2.4-5.5,3.5-8.2c0.1-0.4-0.1-1.1-0.4-1.4c-1.9-1.7-3.9-3.3-6-4.9C79.1,50.6,78.4,50.6,77.9,50.4z
		 M86.1,12.3c-0.1,1-0.1,1.9-0.3,2.7c-0.3,1.1,0.2,1.5,1.2,1.5c2.1,0.1,4.3,0.1,6.4,0.2c0.8,0,1-0.4,1-1.1c0-1.1-1.8-3.3-2.9-3.3
		C89.7,12.3,87.9,12.3,86.1,12.3z M119.1,16c-0.6,2-1.2,4-1.7,5.9c-0.1,0.3,0.1,0.8,0.3,1.1c0.4,0.8,1,1.5,1.5,2.2
		c1,1.4,1.6,1.4,2.4-0.1c1.2-2.1,0.4-4.3,0.1-6.4C121.5,17.4,120.4,16.7,119.1,16z M105.2,25.1c-0.2-0.1-0.3-0.1-0.4-0.1
		c-2.2,1.1-4.5,2.1-6.7,3.3c-0.3,0.1-0.4,0.6-0.5,1c-0.1,0.6-0.1,1.2-0.3,1.8c-0.3,1,0.2,1.4,1.2,1.3c1-0.1,1.9-0.4,2.9-0.7
		c0.6-0.2,1.4-0.4,1.6-0.9c0.9-1.6,1.5-3.2,2.2-4.9C105.4,25.7,105.3,25.4,105.2,25.1z M117.1,77.1c-0.5,1.3-0.8,2.1-1.1,2.9
		c-0.2,0.5-0.4,1-0.4,1.6c0,0.4,0.1,0.8,0.3,1.1c0.8,1.2,1.7,2.3,2.6,3.4c0.2,0.3,0.7,0.5,1,0.4c1-0.4,2.9-3.1,2.1-4.2
		C120.1,80.6,118.7,79,117.1,77.1z M96.5,20.1c0.2,0.8,0.6,1,1.3,0.5c1.4-1.2,2.8-2.4,4.1-3.6c0.2-0.2,0.3-0.9,0.2-1.2
		c-0.5-1-1.1-1.9-1.6-2.8c-0.5-0.9-1-0.7-1.6,0c-0.8,1-1.7,2-2.6,3.1c-0.2,0.3-0.5,0.8-0.4,1.2C96,18.2,96.3,19.2,96.5,20.1z
		 M49.2,43.1c-1.5-1.8-3-3.7-4.5-5.5c-0.1-0.2-0.5-0.3-0.7-0.2c-1,0.7-1.9,1.4-2.8,2.1c-0.1,0.1,0.1,0.8,0.3,1.1
		c0.5,0.7,1.2,1.3,1.8,2C44.9,44.6,47,44.8,49.2,43.1z M145.2,40.7c0.1,0.1,0.3,0.1,0.4,0.2c0.4-0.4,0.9-0.9,1.3-1.3
		c1.1-0.9,1.5-1.8,1.1-3.3c-0.4-1.5-0.1-2.9,0.8-4.2c1-1.5,1.5-3.2,1.5-5.1c-1.6,1.7-3.3,3.4-4.3,5.4
		C144.7,35,145.4,37.9,145.2,40.7z M86.3,37.8c-0.8-1.5-1.4-2.9-2.2-4.2c-1.1-1.8-3.4-2-4.9-0.5c-0.2,0.2-0.4,0.7-0.3,1
		C79.9,37.2,82.9,38.7,86.3,37.8z M72.7,54c-1.1-2.7-1.7-3-4.4-2.3c-0.6,0.1-1.2,0.3-1.7,0.4c-1.7,0.3-1.8,0.8-1,2.1
		c0.2,0.4,0.3,0.9,0.6,1.2c0.4,0.3,0.9,0.7,1.4,0.7c1.3,0,2.7-0.2,4-0.3C73,55.7,73.2,55.3,72.7,54z M85.8,7.7c0-0.1,0-0.1,0-0.2
		c0.2-0.1,0.3-0.1,0.5-0.2c0.7-0.2,1.5-0.3,2.2-0.4C88,6.2,87.6,5.4,87,4.8c-1-0.9-1.9-0.6-2,0.8c-0.1,1.8-0.2,3.6,0.6,5.2
		c0.2,0.4,0.8,0.8,1.3,0.9c1.1,0.1,2.2,0,3.2,0c0.5,0,0.9-0.1,1.7-0.2c-0.8-1.1-1.2-2.3-2-2.8C88.6,8,87.1,8,85.8,7.7z M86.7,39.1
		c-1.8-0.4-3.4-0.7-5-0.5c-0.2,0-0.5,0.3-0.7,0.5c-0.6,1.1-1.3,2.1-1.8,3.2c-0.3,0.6-0.1,1.1,0.6,1.2c1.1,0.1,2.2,0.3,3.2,0.3
		c0.5,0,1.2-0.2,1.4-0.6C85.2,42,85.9,40.7,86.7,39.1z M112.3,59.5c0.1,0,0.3-0.1,0.4-0.1c1.8-0.6,1.9-0.9,0.7-2.3
		c-0.8-0.8-1.7-1.5-2.5-2.4c-1.1-1.2-2.2-1.3-3.5-0.3c-0.7,0.5-0.9,1.1-0.3,1.8c0.6,0.8,1.3,1.6,1.9,2.4
		C110.4,60.2,110.4,60.2,112.3,59.5z M148.5,58.9c-0.6,1.6-0.7,3.2-0.5,4.8c0,0.2,0.3,0.5,0.5,0.7c1.8,1.9,3.7,3.9,5.5,5.8
		c0.3,0.3,0.7,0.5,1.1,0.9C155.1,69.2,149.9,59.9,148.5,58.9z M114.1,26.8C114.1,26.8,114.1,26.8,114.1,26.8
		c0.3,0.7,0.5,1.5,0.9,2.2c0.2,0.3,0.9,0.7,1.3,0.6c1-0.2,2-0.6,2.9-1.1c0.3-0.1,0.6-0.9,0.4-1.1c-0.7-1.2-1.5-2.5-2.4-3.6
		c-0.8-1-2.1-1.1-3.4-0.3c-1,0.6-0.2,1.4-0.1,2.1C113.8,26,114,26.4,114.1,26.8z M91.5,36.9c-0.7-1.3-1.3-2.6-2-3.8
		c-0.2-0.4-0.7-0.6-1.2-0.7c-0.8-0.1-1.7-0.1-2.5-0.1c-1.1,0-1.3,0.3-0.8,1.2c0.7,1.3,1.3,2.6,2.1,3.8c0.3,0.5,1,0.8,1.6,1
		c0.5,0.2,1.1,0.1,1.6,0.2C91.8,38.6,92,38.4,91.5,36.9z M111.5,75.5c0.6,0.3,1,0.6,1.5,0.7c3.1,0.2,3.5-0.2,4.2-3.2
		c0.1-0.3,0.2-0.6,0.3-0.8c0.4-0.9,0-1.2-0.9-1.2c-1.2,0-2.5,0-3.7,0.2c-0.5,0.1-1.1,0.6-1.2,1C111.5,73.1,111.5,74.2,111.5,75.5z
		 M184.9,66.6c1-0.3,3.1-2.8,3.1-3.7c0-0.3-0.6-0.7-0.9-0.7c-1.1-0.2-2.3-0.3-3.5-0.4c-0.4,0-1,0.1-1.3,0.4
		c-0.7,0.6-1.3,1.3-1.8,2.1c-0.2,0.3-0.2,1.1-0.1,1.2C181.8,66.4,183.4,66.7,184.9,66.6z M120.2,41.6c0.2,0.1,0.3,0.1,0.5,0.2
		c0.9-1.5,1.8-2.9,2.7-4.4c0.1-0.2-0.1-0.6-0.2-0.8c-0.4-1.8-0.8-3.5-1.2-5.3c-0.1-0.4-0.2-0.7-0.3-1.3c-0.4,0.4-0.8,0.6-0.9,0.9
		c-0.4,1.4-0.9,2.7-1,4.1c-0.1,1.7,0.2,3.3,0.3,5C120.2,40.4,120.2,41,120.2,41.6z M99,10.9C98,10,97,9,95.9,8.2
		c-0.2-0.1-1,0.1-1.2,0.4c-2.1,2.6-2.1,2.6-0.3,5.3c0.1,0.2,0.2,0.3,0.3,0.5c0.5,0.8,1.1,0.8,1.7,0.2c0.8-0.9,1.7-1.8,2.4-2.8
		C98.9,11.7,98.9,11.3,99,10.9z M118.5,71.2c-0.3,1.9-0.6,3.4-0.9,5c0,0.1,0.1,0.3,0.2,0.4c1,1.2,2,2.5,3,3.7
		c0.2,0.2,0.5,0.3,0.7,0.3c0.1,0,0.3-0.4,0.3-0.6c0.1-1.4,0.3-2.9,0.3-4.3c0-0.5-0.1-1-0.4-1.4C120.8,73.4,119.8,72.5,118.5,71.2z
		 M180.4,26.6c2.2,0.1,4.2,0.3,6.1,0.3c1.4,0,1.5-0.4,1.1-1.6c-0.7-2.2-2.7-2.8-4.6-3.3c-0.2-0.1-0.7,0.4-0.9,0.7
		c-0.5,0.9-0.8,1.9-1.2,2.8C180.8,25.8,180.6,26.1,180.4,26.6z M98.2,37.7c0.1,0.1,0.2,0.2,0.2,0.3c1.1-1,2.3-2,3.3-3.1
		c0.5-0.6,0.5-1.5,0.8-2.3c-0.8,0-1.6,0-2.4,0c-2.7,0.1-3.9,1.5-4.1,4.2c-0.1,1.1-0.1,1.4,1.1,1.2C97.4,37.9,97.8,37.8,98.2,37.7z
		 M101.8,58.6c0.9,0.7,1.7,1.2,2.3,1.9c1.2,1.3,2.5,1.3,4,0.6c1-0.5,1.1-0.9,0.5-1.8c-0.7-0.9-1.3-1.8-2.1-2.7
		c-0.2-0.2-0.7-0.5-0.8-0.5C104.5,56.8,102.8,57.1,101.8,58.6z M116.7,20.8c0.4-1.4,0.7-2.8,1.1-4.1c0.3-0.9,0.6-1.8-0.3-2.3
		c-0.8-0.5-1.9-0.6-2.9-0.7c-0.3,0-0.8,0.6-0.9,1C113,16.8,114.4,19.7,116.7,20.8z M55.9,22.7c-0.8,2.9,0.6,5.1,3.3,5.6
		c0.6,0.1,1.3,0.2,1.9,0.3c0.4,0,0.7,0,1.1-0.1c0-0.3-0.1-0.7-0.2-1C61.2,24.4,58.4,24,55.9,22.7z M114.7,59.4
		c-1.3,0.4-2.4,0.8-3.6,1.2c-0.2,0.1-0.5,0.3-0.5,0.5c-0.3,1.5-0.6,3-0.9,4.6c0.2,0.1,0.3,0.2,0.5,0.4c0.9-0.5,1.8-0.9,2.6-1.4
		C115.1,63.3,115.5,62.2,114.7,59.4z M67.5,58.1c0.7,1.9,1.5,2.4,3.6,2.3c0.5,0,1-0.1,1.5,0c0.8,0,1.2-0.3,1.2-1.1
		c0-0.6,0.1-1.2-0.1-1.8c-0.1-0.4-0.6-0.9-0.9-0.9c-1.5,0-3.1,0.1-4.6,0.3C67.5,56.8,67.2,57.3,67.5,58.1z M92.1,39.3
		c-1.5-0.1-2.6-0.2-3.7-0.2c-0.4,0-0.9,0.3-1.1,0.6c-0.6,1-1.1,2.1-1.7,3.1c-0.4,0.7-0.1,1.2,0.7,1.2c1,0,2-0.1,2.9-0.2
		c0.4-0.1,0.9-0.4,1-0.7C90.9,42,91.4,40.8,92.1,39.3z M109.7,61.4c-3.8,0.4-4.4,0.9-5.1,4c-0.4,1.6-0.1,1.9,1.5,1.6
		c0.9-0.2,2.3-0.4,2.6-1.1C109.4,64.6,109.4,63.1,109.7,61.4z M112.7,69.9c0.2,0.1,0.3,0.4,0.4,0.4c1.4,0,2.8-0.1,4.2-0.1
		c0.2,0,0.5-0.3,0.5-0.4c0.3-0.9,0.6-1.8,0.9-2.7c0.2-0.8-0.3-1.2-1.1-1.2c-1.9-0.1-3.7,0-4.3,2.4c-0.1,0.3-0.3,0.5-0.4,0.8
		C112.9,69.3,112.8,69.6,112.7,69.9z M114.3,83c-1.9-1.1-3.5-0.5-4.1,1.5c0,0.1-0.1,0.3-0.1,0.4c-1,3-0.9,3.1,2.2,3
		c0.7,0,1.1-0.2,1.2-1C113.7,85.6,114,84.3,114.3,83z M41,46.1c0.7-0.3,1.3-0.6,2-0.9c0.8-0.4,0.8-0.9,0.4-1.5
		c-0.7-0.9-1.5-1.7-2.3-2.5c-0.2-0.2-0.9-0.1-1.1,0.1c-0.5,0.5-0.8,1.2-1.2,1.8c-0.5,0.7-0.8,1.4,0,2.2C39.3,46.1,39.9,46.9,41,46.1
		z M118,45.2c0.3,0.1,0.4,0.2,0.5,0.2c0.1,0,0.3,0,0.4-0.1c1.6-1.1,3.3-1.8,5.3-1.4c0.2,0,0.8-0.6,0.8-0.9c-0.2-1.4-0.5-2.8-0.8-4.6
		C122,40.8,120,43,118,45.2z M64.5,43.6c-0.2,0-0.4,0.1-0.6,0.1c-0.2,2.7-0.4,5.4-0.6,8c0.2,0.1,0.3,0.1,0.5,0.2
		c1.2-0.8,2.5-1.6,3.2-3c0.1-0.2,0.2-0.5,0.1-0.7C66.2,46.7,65.3,45.2,64.5,43.6z M115.7,83.6c-0.2,0-0.3,0.1-0.5,0.1
		c-0.4,1.5-0.9,3-1,4.5c0,0.7,0.9,1.6,1.5,2.2c0.1,0.1,1.1-0.6,1.7-1.1c0.3-0.3,0.6-0.6,0.8-1c0.2-0.3,0.3-0.8,0.2-1
		C117.5,86,116.6,84.8,115.7,83.6z M116.3,76.8c-1.5,0.1-2.6,0.1-3.6,0.2c-0.3,0-0.6,0.4-0.7,0.6c-0.3,1.4-0.5,2.8-0.8,4.3
		c1.1-0.1,2-0.1,2.8-0.2c0.2,0,0.5-0.2,0.6-0.4C115.2,80,115.7,78.6,116.3,76.8z M58.9,29c-0.1,0.1-0.2,0.2-0.3,0.4
		c0.3,0.4,0.5,0.8,0.8,1.2c0.5,0.7,1.1,1.4,1.7,2.1c0.7,0.9,2.6,1.6,3.6,1.2c0.2-0.1,0.4-0.4,0.4-0.7c0-1.1-1.6-3.5-2.7-3.7
		C61.2,29.2,60,29.2,58.9,29z M191.9,60.8c-1.9,0.2-4.3,3.3-4.8,5.8c2.1,0.8,3.5,0.4,4-1.3C191.5,63.9,191.6,62.4,191.9,60.8z
		 M44.5,45.9c-0.5-0.1-0.9-0.2-1.3-0.1c-0.9,0.3-1.9,0.6-2.7,1.2c-0.5,0.4-0.8,1.2-0.9,1.9c0,0.3,0.6,0.8,1,1.1
		c0.4,0.3,1,0.4,1.5,0.6c0.8,0.3,1.3,0.1,1.5-0.8c0.2-1,0.5-2,0.8-3C44.4,46.5,44.4,46.3,44.5,45.9z M80.7,50.1
		c-0.1,0.2-0.1,0.4-0.2,0.6c1,0.6,2,1.3,3.1,1.9c0.2,0.1,0.6,0.1,0.9,0c1.3-0.4,2.6-0.9,3.9-1.4c0.3-0.1,0.5-0.6,0.8-0.9
		c-0.3-0.1-0.7-0.4-1-0.4c-1.5,0-3,0-4.4,0.1C82.7,50.1,81.7,50.1,80.7,50.1z M92,51.9c0-0.2-0.1-0.3-0.1-0.5
		c-0.6-0.1-1.4-0.3-1.9-0.1c-1.5,0.5-3,1.2-4.5,1.9c-0.2,0.1-0.5,0.6-0.5,0.6c0.5,0.6,0.9,1.3,1.5,1.7c0.2,0.2,0.9-0.1,1.3-0.3
		c1.1-0.7,2.2-1.4,3.2-2.1C91.3,52.7,91.6,52.3,92,51.9z M66.1,57.7c-0.9,1.8-2.7,3.1-1.4,5.4c0.3,0.5,0.6,1.1,0.9,1.6
		c0.4-0.5,0.8-1,1.2-1.5c0.1-0.1,0.2-0.3,0.2-0.4C68.2,60.5,68.2,60.1,66.1,57.7z M104.6,62.2c-0.3-0.5-0.4-0.7-0.5-0.8
		c-0.6-0.5-1.1-1-1.7-1.4c-1-0.8-3.4,0.1-3.7,1.3c0,0.2-0.1,0.5,0,0.6c0.7,0.5,1.5,1.5,2.3,1.5C102.1,63.4,103.2,62.7,104.6,62.2z
		 M62,57.6c0.4,0.8,0.6,1.4,0.9,1.9c0.2,0.2,0.9,0.4,0.9,0.4c0.6-1.3,1.3-2.6,1.6-4c0.1-0.5-0.7-1.3-1.2-1.9
		c-0.5,0.4-1.1,0.8-1.5,1.2C62.1,56,61.3,56.7,62,57.6z M185.2,51.9c1.6,0.5,3.8,0,4.4-1.2c0.5-1,0.6-2.2,0.7-3.3
		c0-0.5-0.5-1.1-0.8-1.8C187.5,47.6,187.4,50.3,185.2,51.9z M120.2,29.6c-1-0.1-3.4,0.5-3.9,1.1c-0.1,0.1-0.2,0.3-0.3,0.5
		c-0.2,0.9,1.9,3.5,2.8,3.7C119.3,33.1,119.8,31.4,120.2,29.6z M63.9,37.8c-0.1,0.1-0.2,0.3-0.3,0.4c0.5,0.3,0.9,0.7,1.4,0.7
		c0.5,0,1.2-0.3,1.4-0.7c1.1-1.8,0.2-3.4-1.9-3.5c-0.3,0-0.7-0.1-1-0.1c-0.3,0-0.8,0.2-0.9,0.3c-0.1,0.3,0.1,0.7,0.2,1.1
		C63.1,36.6,63.5,37.2,63.9,37.8z M115.9,59.7c-0.1,1.3-0.1,2.5-0.4,3.6c-0.6,1.9-0.7,1.9,1.4,1.8c0.3,0,0.7,0,1-0.1
		c0.3-0.1,0.7-0.3,0.7-0.6C119.1,63,117.6,60.4,115.9,59.7z M119.7,66.7c-0.3,0.9-0.6,1.7-0.7,2.5c-0.1,0.4-0.1,0.9,0.1,1.2
		c0.6,0.8,1.3,1.5,2,2.2c0.2,0.2,0.5,0.3,0.8,0.2c0.1,0,0.3-0.4,0.3-0.6c0-0.9,0-1.9-0.1-2.8C121.9,68.1,121.2,67.3,119.7,66.7z
		 M80.3,38.4c-1.4,0-2.4-0.2-3.3,0c-0.7,0.1-1.3,0.8-1.8,1.3c-0.1,0.1,0.3,1,0.6,1.1c0.9,0.4,1.4,1.7,2.6,1.2c0.1,0,0.2-0.1,0.2-0.2
		C79.2,40.8,79.7,39.7,80.3,38.4z M62.9,39.6c0.3-1.8-0.5-2.9-1.9-3.6c-1.8-0.8-3.1-2-4.3-3.6c-0.3-0.4-0.9-0.7-1.3-1
		c-0.2,0.2-0.3,0.4-0.5,0.6C57.6,34.5,60,37.4,62.9,39.6z M58.8,60.3c0.9-0.5,1.8-2.2,1.6-3.1c-0.1-0.7-1.9-1.1-3-0.8
		c-0.7,0.2-1.6,2.2-1.1,2.9C56.8,59.9,57.9,60,58.8,60.3z M68.3,62.1c-0.3,0.6-0.7,1.2-1,1.7c-1.2,2.3-1.1,2.3,1.1,3.3
		c0,0,0.1,0.1,0.1,0.1c0.4-0.1,0.9-0.2,1-0.4C70.6,65.2,70.1,63.5,68.3,62.1z M92.1,10.6c0.6-0.6,1.1-1.1,1.6-1.7
		c0.9-1.1,0.9-1.3-0.4-1.9c-0.4-0.2-0.8-0.6-1.3-0.8c-0.5-0.2-1.3-0.4-1.5-0.1c-0.3,0.4-0.5,1.3-0.3,1.7
		C90.7,8.8,91.4,9.6,92.1,10.6z M53.1,63.7c2,1,5.1-0.3,5.3-2.8C55.9,60.4,53.9,61.5,53.1,63.7z M104.3,63.5
		c-0.1-0.1-0.2-0.2-0.3-0.3c-0.9,0.3-1.9,0.5-2.8,1c-0.5,0.3-0.8,1.1-0.8,1.7c0,0.2,0.7,0.7,1.1,0.9c0.4,0.2,0.9,0.3,1.3,0.3
		c0.3,0,0.8-0.3,0.9-0.5C103.9,65.6,104.1,64.5,104.3,63.5z M79.4,36.4c-0.8-2.1-2.1-2.5-3.8-1c-0.8,0.7-0.7,1.7,0.4,1.9
		c0.9,0.2,1.9,0.2,2.8,0.2C79.5,37.6,79.6,37.1,79.4,36.4z M69.6,61.9c0.7,1.9,1.8,3,2.7,2.6c0.6-0.2,1.2-2,1-2.7
		c-0.2-0.6-2-1.1-3.1-0.6C69.9,61.2,69.7,61.7,69.6,61.9z M94.7,36.9c0.2-0.1,0.3-0.1,0.5-0.2c0.2-0.9,0.4-1.8,0.5-2.7
		c0-0.2-0.3-0.7-0.5-0.7c-0.8-0.2-1.7-0.3-2.5-0.3c-0.2,0-0.7,0.8-0.6,0.8C92.9,34.9,93.8,35.9,94.7,36.9z M183.6,52.3
		c-0.8,2.5,0.8,3.6,3.2,4.3C187.3,55,185.5,52.5,183.6,52.3z M190.9,45.9c0.1-0.1,0.2-0.2,0.3-0.3c-0.5-1.4-0.9-2.8-1.4-4.1
		c-0.2-0.4-0.8-0.8-1.4-0.9c-0.2-0.1-0.8,0.6-0.8,1c0,0.5,0.3,1,0.6,1.5c0.5,0.7,1.1,1.3,1.7,1.9C190.2,45.3,190.5,45.6,190.9,45.9z
		 M60.9,34.7c-0.3-1.9-2.2-4.3-3.5-4.5C56.7,31.6,59,34.6,60.9,34.7z M189.1,39.6c-0.8-1.4-3.1-2.4-4.3-1.8
		c-0.3,0.1-0.6,0.6-0.6,0.9c0,0.3,0.3,0.9,0.5,0.9C186.1,39.7,187.6,39.6,189.1,39.6z M183.8,47.7c1.9-1.2,3-3.8,2.7-6.1
		c-0.6,1-1,2.1-1.7,2.8C183.6,45.3,183.7,46.3,183.8,47.7z M111.4,92.6c0.2,0,0.4,0,0.6,0c0.3-1.1,0.6-2.2,0.7-3.3
		c0-0.2-1.1-0.6-1.7-0.6c-0.2,0-0.8,0.7-0.8,0.9C110.5,90.6,111,91.6,111.4,92.6z M22.4,51.7c-0.6-1.4-1.9-2.6-3-2.8
		c-0.3,0-0.6,0-0.8,0.2c-0.1,0.1-0.1,0.4,0,0.7C19.3,51.5,20.3,52,22.4,51.7z M190.8,51.5c-0.1-0.1-0.3-0.3-0.4-0.4
		c-1,0.6-2.1,1.2-3,1.9c-0.2,0.2,0.1,1.1,0.3,1.7c0.1,0.1,1,0.1,1.2-0.1C189.6,53.6,190.2,52.5,190.8,51.5z M114.8,22.4
		c0.5-0.1,0.9-0.4,0.3-1.3c-0.3-0.4-0.5-1-0.9-1.4c-0.3-0.3-0.7-0.5-1.1-0.7c-0.1,0.4-0.2,0.8-0.2,1.2c0,0.3,0,0.7,0,1
		C113,22.5,113.3,22.8,114.8,22.4z M184.7,50.9c1.4-0.3,2-0.8,1.6-1.9c-0.2-0.4-0.7-1.1-1-1.1c-0.8,0-1.8,1.7-1.5,2.4
		C183.9,50.7,184.5,50.8,184.7,50.9z M84.9,62c0.2,0.1,0.3,0.2,0.5,0.2c0.7-0.8,1.3-1.7,2-2.5c0.8-1,0.6-1.4-0.9-2.1
		C86,59.1,85.4,60.5,84.9,62z M90.7,54.5c-0.1-0.1-0.3-0.3-0.4-0.4c-0.8,0.6-1.7,1.1-2.4,1.7c-0.2,0.2-0.1,0.8-0.2,1.2
		c0.4,0,1.1,0.2,1.3,0C89.6,56.3,90.2,55.4,90.7,54.5z M91.6,42.9c1.4-0.4,2.3-2.2,1.8-3.8C92.1,40.2,91.9,41.6,91.6,42.9z
		 M185.5,57.9c0-0.2,0.1-0.4,0.1-0.6c-0.7-0.5-1.4-0.9-2.1-1.4c-0.1,0.1-0.3,0.2-0.4,0.3c0.1,0.6,0,1.6,0.2,1.6
		C184,58.1,184.8,57.9,185.5,57.9z M80.2,63.3c0.7-1,1.1-1.9,0.6-3C78.7,61.3,78.7,61.5,80.2,63.3z M57.2,55.8c0.8,0,1.6,0,2.4-0.1
		c0.2,0,0.5-0.3,0.6-0.5c0-0.1-0.2-0.5-0.3-0.6C59.4,54.3,57.7,54.8,57.2,55.8z M187,47.8c0.7-0.8,1.6-1.3,0.8-2.4
		c-0.1-0.2-0.8-0.2-1-0.1C186,45.8,186,46.7,187,47.8z M114.2,89.9c-0.2,0-0.4,0-0.6,0.1c-0.2,0.9-0.4,1.9-0.6,3
		c1.2,0,1.7-0.6,1.8-1.3C114.8,91.1,114.4,90.5,114.2,89.9z M183.8,43.5c0.2,0.1,0.4,0.1,0.6,0.2c0.3-0.7,0.7-1.4,1-2.2
		c0.1-0.3-0.2-0.6-0.3-0.9c-0.3,0.2-0.9,0.2-0.9,0.5C184,41.8,183.9,42.7,183.8,43.5z M69.4,50.4c0-0.1,0-0.3,0.1-0.4
		c-0.6-0.2-1.2-0.6-1.7-0.5c-0.6,0.2-1.3,0.7-0.9,1.8C67.7,51,68.6,50.7,69.4,50.4z M79.4,60.5c0.5-0.8,0.8-1.2,1-1.6
		c-0.6-0.2-1.3-0.4-1.9-0.5c-0.1,0-0.4,0.8-0.3,1C78.4,59.8,78.9,60,79.4,60.5z M91.7,35.5c0.5,1,0.8,1.7,1.2,2.4
		c0.1,0.2,0.6,0.2,0.9,0.1c0.1,0,0.3-0.6,0.2-0.7C93.6,36.5,93.3,35.7,91.7,35.5z M110.9,53.4c0.1-0.1,0.2-0.2,0.4-0.3
		c-0.1-1.4-0.8-2.1-2.5-2.3C109.5,51.6,110.2,52.5,110.9,53.4z M58,22.5c-0.5-1.2-1.1-2-2.3-2.1C55.5,21.8,56,22.3,58,22.5z
		 M36.2,47.6c0.1,0.1,0.2,0.2,0.3,0.3c0.5-0.2,1.1-0.4,1.5-0.7c0.2-0.2,0-0.8,0-1.3c-0.4,0.1-0.9,0-1.1,0.2
		C36.6,46.5,36.5,47.1,36.2,47.6z M78.8,57.4c0.8,0.2,1.3,0.4,1.9,0.4c0.8,0,0.9-0.4,0.5-1.1C80.6,55.9,80.1,56,78.8,57.4z
		 M72.1,68.2c-0.4-0.6-0.7-1.1-1.1-1.7c-0.2,0.3-0.7,0.6-0.7,0.9C70.3,68.3,71,68.5,72.1,68.2z M64.5,41.9c0.3,0,0.6,0,0.9,0
		c0-0.7,0.1-1.3,0.1-2c-0.3,0-0.6,0-1,0C64.5,40.6,64.5,41.2,64.5,41.9z M38.5,47.5C38,48,37.6,48.5,37.2,49
		c0.4,0.1,0.8,0.4,1.1,0.4C39.1,49.1,39.1,48.5,38.5,47.5z M92.1,44.4c-0.2-0.2-0.4-0.3-0.6-0.5c-0.6,0.8-1.3,1.6-1.9,2.4
		c0.2,0.1,0.3,0.3,0.5,0.4C90.7,45.9,91.4,45.2,92.1,44.4z M73.3,37.9c-0.1,0.3-0.2,0.5-0.3,0.8c0.5,0.2,0.9,0.4,1.4,0.6
		c0,0,0.3-0.5,0.4-0.8C74.3,38.2,73.8,38,73.3,37.9z"/>
</g>
<g>
	<path class="st2" d="M89.2,11.6c-3.2-2.4-6.5-4.3-9.9-5.6c-3.4-1.4-6.8-2-10.2-2c-4.5,0-8.8,1.2-12.8,3.5c-4,2.3-7.5,5.7-10.5,10.1
		c-2.8,4.2-4.9,9.1-6.5,14.5C37.8,37.4,37,43.1,37,49c0,6.1,0.8,11.8,2.3,17.2c1.5,5.4,3.7,10.3,6.5,14.5c2.2,3.2,4.7,5.9,7.5,8
		c2.8,2.2,5.8,3.7,9,4.5c1.4,0.4,3,0.7,4.6,0.9c1.6,0.2,3.3,0.3,4.8,0.3c5.4,0,9.8-0.8,13.2-2.4c3.4-1.6,6.1-3.6,8.1-6.1
		c2.1-2.6,3.6-5.4,4.7-8.5c0.6-1.4,1.1-2.9,1.5-4.4c0.4-1.5,0.9-3,1.3-4.5h0.4v24.7h-1.1c-0.2-0.3-0.5-0.6-0.8-0.8
		c-0.3-0.2-0.6-0.5-1-0.8c-1-0.6-2.2-0.8-3.7-0.8c-1.3,0-2.6,0.2-4.1,0.7c-0.6,0.2-1.4,0.5-2.2,0.7s-1.7,0.5-2.6,0.7
		c-0.9,0.3-1.8,0.6-2.8,0.8c-1,0.2-2.1,0.5-3.2,0.7c-1.1,0.2-2.3,0.3-3.5,0.4c-1.2,0.1-2.5,0.2-3.9,0.2c-0.5,0-1,0-1.5,0.1
		c-0.5,0-1,0-1.5-0.1c-6.4,0-12.3-1.2-17.7-3.5c-5.4-2.3-10.1-5.5-14.1-9.7c-4-4.1-7.1-9-9.3-14.6c-2.3-5.6-3.4-11.7-3.4-18.3
		c0-6.5,1.1-12.6,3.4-18.3c2.3-5.6,5.4-10.5,9.4-14.6c4-4.1,8.7-7.3,14.1-9.6c5.4-2.3,11.3-3.5,17.7-3.5c3.2,0,6.4,0.6,9.6,1.7
		C82,6,85.1,7.6,88.1,9.7c0.4,0.2,0.8,0.3,1.1,0.4c0.4,0.1,0.7,0.2,1.1,0.4c1.2,0.6,2.5,0.8,3.8,0.8c1.7,0,3-0.3,3.8-1
		c0.3-0.2,0.6-0.5,0.9-0.7c0.3-0.2,0.5-0.5,0.8-0.8h1.2v23h-0.5c-0.4-1.4-0.8-2.9-1.3-4.3c-0.4-1.4-0.9-2.9-1.5-4.3
		c-1-3-2.6-5.6-4.8-8c-0.1-0.2-0.3-0.4-0.6-0.7c-0.5-0.5-1-0.9-1.5-1.4c-0.5-0.4-1-0.9-1.5-1.3C89.2,11.7,89.2,11.7,89.2,11.6z
		 M69.8,21.5L69,23.8l-0.8-2.3l0.8-0.8L69.8,21.5z M69,76l0.8,0.8L69,79l-0.8-2.2L69,76z"/>
	<path class="st2" d="M184.5,91.1c-0.2,0.2-0.5,0.4-1,0.7c-0.3,0.2-0.6,0.3-0.9,0.5c-0.3,0.2-0.6,0.4-1,0.5
		c-0.9,0.2-1.8,0.5-2.9,0.7c-0.6,0.2-1.3,0.2-2,0.2c-0.7,0-1.4,0-2.2,0c-3.3,0-5.9-0.4-7.9-1.1c-2.1-0.9-3.7-2-4.9-3.5
		c-1.4-1.6-2.3-3.5-2.8-5.6c-0.6-2.5-1.1-5.1-1.3-7.9l-0.8-11c-0.3-4-1.1-7.2-2.4-9.6c-0.9-1.4-1.9-2.7-3-3.8
		c-2.1,0.2-4.2,0.4-6.5,0.4h-23.1v29.5c0,4.3,0.3,7.3,0.9,9c0.6,1.7,1.4,2.8,2.5,3.2h-18c1-0.4,1.7-1.5,2.3-3.2
		c0.6-1.7,0.9-4.7,0.9-9V15.8c0-4.3-0.3-7.3-0.9-9c-0.6-1.7-1.4-2.8-2.3-3.2h37.8c18.7,0,28,8.9,28,26.7c0,10.8-5.4,17.5-16.2,20.1
		c0.1,0.1,0.1,0.1,0.2,0.1c0,0,0.1,0,0.2,0.1c1.1,0.5,2.2,1.1,3.2,1.7c1,0.7,2,1.5,3,2.3c0.9,0.9,1.7,1.8,2.3,2.9
		c0.7,1,1.2,2.2,1.6,3.6c0.5,1.6,0.8,3.4,1.1,5.4c0.1,1.1,0.2,2.2,0.2,3.2c0.1,1,0.2,2.1,0.2,3.2c0.1,1.1,0.1,2.2,0.2,3.2
		c0,1,0.1,2,0.2,3c0.1,1,0.2,2,0.2,2.9c0.1,0.9,0.2,1.6,0.4,2.3c0.5,2.1,1.3,4,2.4,5.7c1.1,1.8,2.9,2.8,5.4,2.8c0.9,0,2-0.2,3.4-0.6
		c1-0.3,2-0.9,2.9-1.8L184.5,91.1z M145.1,51.1c5.5,0,9.7-1.8,12.5-5.4c2.8-3.5,4.2-8.7,4.2-15.4c0-8.5-1.4-15-4.2-19.5
		c-2.8-4.4-7-6.6-12.6-6.6h-23.1v46.9H145.1z M139.6,18.4l0.8,0.8l-0.8,2.3l-0.8-2.3L139.6,18.4z M139.6,23.3l0.8,0.8l-0.8,2.3
		l-0.8-2.3L139.6,23.3z"/>
</g>
</svg>
